<svg xmlns="http://www.w3.org/2000/svg" xmlns:xlink="http://www.w3.org/1999/xlink" viewBox="0 0 402.75 375.43"><defs><style>.cls-1,.cls-14,.cls-27,.cls-32,.cls-33{fill:none;}.cls-2{isolation:isolate;}.Graphic-Style-4,.cls-9{fill:#f9879a;}.Graphic-Style-4{opacity:0.3;}.cls-3,.cls-8{fill:#4a23e8;}.cls-3,.cls-7{mix-blend-mode:multiply;}.cls-3{opacity:0.08;}.cls-4{fill:#f86c83;}.cls-5{fill:#b0bdee;}.cls-6{fill:#8de1d3;}.cls-7{opacity:0.15;}.cls-10{fill:#8076fa;}.cls-11{fill:#fbb0bc;}.cls-12{fill:#52d2bc;}.cls-13{fill:#dee3f8;}.cls-14,.cls-32,.cls-33{stroke:#4a23e8;}.cls-14,.cls-27,.cls-33{stroke-linecap:round;}.cls-14{stroke-linejoin:round;}.cls-14,.cls-27{stroke-width:1.5px;}.cls-15{fill:#889be5;}.cls-16{fill:#fcbcc6;}.cls-17{fill:#fbb2be;}.cls-18{fill:#a2e7db;}.cls-19{fill:#a0afea;}.cls-20{fill:#9cace9;}.cls-21{fill:#a83e54;}.cls-22{clip-path:url(#clip-path);}.cls-23{fill:#ff6581;}.cls-24{fill:#fff;}.cls-25{fill:#7fdecd;}.cls-26{fill:#ace9df;}.cls-27{stroke:#fff;}.cls-27,.cls-32,.cls-33{stroke-miterlimit:10;}.cls-28{clip-path:url(#clip-path-2);}.cls-29{clip-path:url(#clip-path-3);}.cls-30{fill:#fa99a9;}.cls-31{clip-path:url(#clip-path-4);}.cls-34{clip-path:url(#clip-path-5);}</style><clipPath id="clip-path" transform="translate(-313.84 -297.76)"><path class="cls-1" d="M462.61,409.7c-5.33.92-11.16-.76-11.25,3.25s6.24,5.7,11.76,4.53,13-4.41,13-8.21S467.23,408.89,462.61,409.7Z"/></clipPath><clipPath id="clip-path-2" transform="translate(-313.84 -297.76)"><path class="cls-1" d="M574.31,408.77c5.52-.7,11-5.29,11.91.37s-5.12,10.48-10.87,10.9-13.85-1.37-14.63-6.77S569.53,409.38,574.31,408.77Z"/></clipPath><clipPath id="clip-path-3" transform="translate(-313.84 -297.76)"><path class="cls-1" d="M590.4,506.16c-5.18-1.54-9.66-5.64-11.52-2.1s3,7.89,8.51,9.3,13.58,1.81,15.29-1.58S594.9,507.5,590.4,506.16Z"/></clipPath><clipPath id="clip-path-4" transform="translate(-313.84 -297.76)"><path class="cls-1" d="M512.56,481.52c-5.37,0-10.93-3.11-11.5,1.43s5.48,7.77,11.06,7.54,13.33-2.42,13.81-6.74S517.22,481.53,512.56,481.52Z"/></clipPath><clipPath id="clip-path-5" transform="translate(-313.84 -297.76)"><path class="cls-1" d="M427.21,503c5.52-.7,11-5.3,11.91.37s-5.12,10.48-10.87,10.9-13.86-1.38-14.63-6.77S422.43,503.63,427.21,503Z"/></clipPath></defs><g class="cls-2"><g id="Layer_1" data-name="Layer 1"><path class="Graphic-Style-4" d="M382.23,353.25c-41.26,11.88-68,68.77-40.37,73.42s-2,39.52-4.09,76-64.49,103.61,20.93,102c25.37-.49,56.36,21.38,62.26,32.48s61.53,57.32,101.9,24.53c16.55-13.44,87.15,21.56,122.89-24.09s30.08-8.27,62.43-60.25-40.57-50.74-18.73-81.43,38.2-90.95,3.06-88.35-49.48-10.88-57-42.92-26.93-67.32-58.78-44.51-61.83,24.14-66.5,6c-5.55-21.53-34.31-44-58.91-13.31S420.08,342.35,382.23,353.25Z" transform="translate(-313.84 -297.76)"/><ellipse class="cls-3" cx="190.73" cy="329.13" rx="8.76" ry="3.84"/><ellipse class="cls-3" cx="172.19" cy="327.05" rx="7.12" ry="2.24"/><ellipse class="cls-3" cx="182.7" cy="296.79" rx="7.61" ry="2.24"/><ellipse class="cls-3" cx="177.46" cy="308" rx="7.92" ry="2.24"/><ellipse class="cls-3" cx="200.5" cy="315.65" rx="7.92" ry="2.24"/><ellipse class="cls-3" cx="155.68" cy="311.7" rx="7.51" ry="2.24"/><ellipse class="cls-3" cx="216.16" cy="342.41" rx="9.22" ry="2.79"/><ellipse class="cls-3" cx="215.71" cy="319.44" rx="7.53" ry="3.84"/><ellipse class="cls-3" cx="237.01" cy="317.77" rx="8.73" ry="2.52"/><path class="cls-4" d="M444.38,517.1c-1.89,3.33-4.11,8.21,2.05,8.31s7.95,0,9.6,0c3.29,0,2.35-3.17,0-3.67C450.54,520.64,446.13,514,444.38,517.1Z" transform="translate(-313.84 -297.76)"/><path class="cls-4" d="M473.75,517.1c-1.9,3.34-4.12,8.21,2,8.32s7.95,0,9.6,0c3.29,0,2.35-3.17-.05-3.67C479.9,520.64,475.5,514,473.75,517.1Z" transform="translate(-313.84 -297.76)"/><path class="cls-5" d="M448.59,470.9c-.5,6.28-.43,21.18-1.34,26.8-1.43,8.93-1.85,14.8-2.77,18.58s4.62,5.44,6.37,1.43,7-12.11,7.8-18,2.47-10.16,3.1-13.45,2.74-3.23,4.23,1.23c3.14,9.45,4.17,11,6,30,.49,5,6.88,2.51,6.94-.51.1-4.52,1.69-15.71,1.14-21.56-.39-4.11-1.51-21.29-2-25.12S449.43,460.24,448.59,470.9Z" transform="translate(-313.84 -297.76)"/><path class="cls-6" d="M516.36,431c-4.92.64-18.13,1.14-22.06-.13-3.11-1-6.34-4.29-11.71-9.24s-7-5.18-14.84-7.38l-31.16,3.15s-.21.4-.47,1.06a36.11,36.11,0,0,0-9.14,6.69c-5.14,4.89-8.15,9.06-11.82,14-4.49,6-6.74,15.19.32,17.21a34.08,34.08,0,0,0,15.2,1c5.06-.77,5.51-7.48.26-7.48-8.55,0-8.83-3.35-6.74-5.82,3.89-4.57,5.1-6.12,8.48-9.08,2.55-2.23,5-4,6.31-1.85,1.75,6.39,1.36,20.71.77,36.56-.23,6.18,38.16,6.51,38.31-1.67.34-18.47-.59-26.81-2.24-32.16-2.15-6.91,1-4,3.62-1.68,3.72,3.29,11.49,7.81,16,7.81s16.58-1.27,22.19-3.75S521.28,430.39,516.36,431Z" transform="translate(-313.84 -297.76)"/><g class="cls-7"><path class="cls-8" d="M467.75,414.29l-31.16,3.15s-.21.4-.47,1.06a29.94,29.94,0,0,0-5.19,3.27,36.89,36.89,0,0,0,46.17-4.3C474.78,416.2,472.31,415.57,467.75,414.29Z" transform="translate(-313.84 -297.76)"/></g><path class="cls-8" d="M387.94,576c-6.48,1.33-12,3.11-13.76,1.33s-1.68-3.64,1.34-5.25,8-4.36,10.14-4.36a5.56,5.56,0,0,1,5,3.08C391.53,572.57,389.41,575.66,387.94,576Z" transform="translate(-313.84 -297.76)"/><path class="cls-8" d="M425.42,583.15c-1.3,6.49-1.81,12.25-4.14,13.19s-4,.13-4.32-3.28-.91-9,0-11a5.59,5.59,0,0,1,4.79-3.43C423.69,578.52,425.72,581.68,425.42,583.15Z" transform="translate(-313.84 -297.76)"/><path class="cls-9" d="M432.12,555.05a121.92,121.92,0,0,1,14,12.63c3,3.19,7.21,8.28,1,11.56-6,3.18-15.91,5.34-20.73,6.66s-7.12-5.92-1.9-7.2,6.47-2.13,9.33-2.63,6.58-1,3.72-2.84c-9.73-6.4-16.1-5.16-19.41-1.85s-2.57,9.45-3.3,13.76-7.22,5.42-11.54,3-13.14-8.9-15.92-10.85-2.08-7.3,3-5.26c4.7,1.89,11.13,7.66,13.55,8.46s-1.67-6-3.33-7.65-2.45-6.17-.09-9.64S428.06,551.79,432.12,555.05Z" transform="translate(-313.84 -297.76)"/><path class="cls-8" d="M565,573.7c-6.48,1.33-12,3.1-13.76,1.33s-1.69-3.65,1.34-5.26,7.94-4.35,10.14-4.35a5.58,5.58,0,0,1,5,3.08C568.63,570.3,566.51,573.39,565,573.7Z" transform="translate(-313.84 -297.76)"/><path class="cls-5" d="M545.81,538c6.62-.15,12.35-.92,13.78,1.14s1,3.89-2.26,4.94-8.59,2.86-10.75,2.47a5.57,5.57,0,0,1-4.4-3.92C541.68,540.66,544.31,538,545.81,538Z" transform="translate(-313.84 -297.76)"/><path class="cls-5" d="M481.47,543.77c-6.62.09-12.36.79-13.77-1.28s-1-3.9,2.31-4.91,8.63-2.78,10.79-2.36a5.56,5.56,0,0,1,4.35,4C485.63,541.12,483,543.76,481.47,543.77Z" transform="translate(-313.84 -297.76)"/><path class="cls-8" d="M585.14,583.42c-5.77,3.25-10.47,6.62-12.7,5.47s-2.72-2.95-.33-5.41,6.24-6.58,8.33-7.25a5.55,5.55,0,0,1,5.72,1.4C587.52,579.09,586.45,582.68,585.14,583.42Z" transform="translate(-313.84 -297.76)"/><path class="cls-10" d="M592.16,522c2,3.34,4.34,8.21-2.17,8.32s-8.4,0-10.15,0c-3.47,0-2.49-3.17.06-3.67C585.65,525.49,590.31,518.88,592.16,522Z" transform="translate(-313.84 -297.76)"/><path class="cls-10" d="M561.11,522c2,3.33,4.35,8.21-2.17,8.31s-8.4,0-10.15,0c-3.47,0-2.49-3.17.06-3.67C554.6,525.49,559.26,518.88,561.11,522Z" transform="translate(-313.84 -297.76)"/><path class="cls-11" d="M587.71,470.91c.53,6.88.46,23.25,1.41,29.42,1.52,9.8,2,16.25,2.93,20.4s-4.88,6-6.73,1.58-7.38-13.3-8.25-19.73-2.61-11.16-3.28-14.76-2.9-3.55-4.47,1.35c-3.32,10.37-4.41,12.06-6.36,32.91-.51,5.48-7.27,2.75-7.34-.56-.1-5-1.78-17.25-1.2-23.67.41-4.51,1.59-23.37,2.14-27.58S586.82,459.2,587.71,470.91Z" transform="translate(-313.84 -297.76)"/><path class="cls-5" d="M637.13,571.43c1.67.73,4.5,2.8,7.87,4.41s4.36-1,2-2.84-4-3.81-2-4.56c3.26-1.26,4.19-1.87,10.77,2.68,2.85,2,4.62,0,2-2.43-2.93-2.75-5.73-5.56-8.93-6s-12.25.14-14.42,1.41S630.54,568.54,637.13,571.43Z" transform="translate(-313.84 -297.76)"/><path class="cls-8" d="M496.51,532.9c-2,4.05-4.7,16.18-6.65,18.12s-2.85-6.07-4.21-9.85-8.33-2.86-7.49,2,2.21,17.77,3.71,21.09,11.4,6,15.39,0,10.4-14.4,15.71-14.4c7,0,10.36,2.68,12.43,8.92,4.91,14.84,12.29,14.94,14.61,8.83s6.5-17.84,8.16-21-2-6.67-5.61-3.1-6.64,14.44-8,9.12-1.16-14.48-2.83-18.13S499.81,526.2,496.51,532.9Z" transform="translate(-313.84 -297.76)"/><path class="cls-8" d="M592.22,525.18c-4.59-6.35-.75-8.41-3-14.6s.51-6.69-1.81-14.41-3.19-11.11-2.26-17.1,3.82-5.31,5.44-9.8-2.43-6.58,5.57-7.52.19-6.2,8.75-6.71,9.57-2.81,14.76-1.44,8.51,2.35,13,7.42,3,5.08,6.69,10.05,2.07,3.67,4.38,11.07-.53,12.7,0,18-5.54,5.18-4,13.26-.15,9.56-2.72,14.83-13.41,5.91-15.35,4-15.76-9.88-18.13-7.5S593.78,527.34,592.22,525.18Z" transform="translate(-313.84 -297.76)"/><path class="cls-8" d="M409.66,514.06a18,18,0,0,1-11.48,12.05c2.16-6,1.38-15.95-2.16-20C402.84,504.28,409.66,514.06,409.66,514.06Z" transform="translate(-313.84 -297.76)"/><path class="cls-12" d="M640.05,564.36c-2.45-7.59-2.91-13.33-5-21-1.33-5-4-13.84-8.81-18.73-5.31-5.34-6.73-5.53-9.63-6.7l-.15.22a18.28,18.28,0,0,0-1.1-1.48l-21.69-2.35c-7.38,2.2-8.93,7-10.65,14.77-1.44,6.51-1.42,6.56-1.24,25.68.07,7.88,33.39,22.93,33.11,10.17-.41-19,.23-30.36,3.11-33.83l.17-.22a3.77,3.77,0,0,1,3.12,2.26c2.88,5.6,5.08,9.61,6,12.62,1,3.23,4.82,16.38,6.1,21.19C634.4,570.7,641.3,568.23,640.05,564.36Z" transform="translate(-313.84 -297.76)"/><path class="cls-9" d="M407.83,518.38c-2.15,7.9-10.74,21-13.58,22.06,2.15-6-3.29-29.37-6.82-33.44C394.25,505.19,407.83,518.38,407.83,518.38Z" transform="translate(-313.84 -297.76)"/><path class="cls-9" d="M448.25,493.18c-2.16,7.9-2.27,25.82-1.17,35.94-3.66-3.66-11-22.23-14.54-26.3C439.36,501,448.25,493.18,448.25,493.18Z" transform="translate(-313.84 -297.76)"/><path class="cls-9" d="M443.47,501c-2.16,7.9-1.46,26.9-.36,37-3.66-3.66-7-23.31-10.57-27.38C439.36,508.82,443.47,501,443.47,501Z" transform="translate(-313.84 -297.76)"/><path class="cls-10" d="M460.6,538c-4.12-1.89-5.87-3.64-8.91-5.77-2.67-1.88-1.85-8.4-7.22-13.35s-7-5.18-14.84-7.38l-31.16,3.15s-.21.4-.47,1.06a36.37,36.37,0,0,0-9.14,6.69c-5.14,4.89-8.15,9.06-11.81,14-4.5,6-6.75,15.19.31,17.21a34.08,34.08,0,0,0,15.2,1c5.06-.76,5.51-7.48.26-7.48-8.55,0-8.83-3.35-6.74-5.81,3.89-4.58,5.1-6.13,8.48-9.09,2.48-2.17,4.85-3.91,6.2-2,1.29,5.55-.27,17.18-.27,33,0,7.52,34-.94,34.18-9.12.34-18.48.48-16.07.48-21,0-7.23,2.88-5,3.84-1.68,1.05,3.7,4.75,6.74,8.76,8.86,3.46,1.82,4.68,3,10.4,5.19C462.93,547.33,465.12,540.07,460.6,538Z" transform="translate(-313.84 -297.76)"/><path class="cls-10" d="M616.29,439.79c-3.65-4.9-6.64-9.07-11.77-14a35.8,35.8,0,0,0-9.1-6.68c-.26-.66-.47-1.06-.47-1.06l-31-3.16c-7.78,2.21-9.44,2.46-14.77,7.39s-8.57,8.23-11.67,9.23c-3.91,1.27-17.07.78-22,.13s-6.73,4.84-1.29,7.25,17.59,3.76,22.1,3.76,12.25-4.53,15.95-7.81c2.6-2.31,5.74-5.23,3.61,1.68-1.65,5.35-2.22,18.62-1.88,37.09.15,8.18,41.11,7.85,40.88,1.67-.61-16.47-3.32-35-2-42,1.37-1.4,3.6.28,5.92,2.32,3.38,2.95,4.58,4.51,8.45,9.08,2.09,2.47,1.8,5.82-6.71,5.82-5.23,0-4.78,6.71.26,7.48A34.06,34.06,0,0,0,616,457C623,455,620.77,445.81,616.29,439.79Z" transform="translate(-313.84 -297.76)"/><path class="cls-9" d="M547.84,501.49c-4.76-10.22-9-11.21-12.71-13.52l-.06,0a40.92,40.92,0,0,0-14.43-5.23c-6.86-1.25-20.83,0-20.83,0-7.4,2.89-8.61,1.41-13.24,8.42-2.54,3.85-3.32,8.95-9.5,21.94-5.76,12.12-3.69,13.4-1,19.73,2.25,5.32,10.85,17.3,13.08,19.06,4,3.15,5.84-3.84,1.89-9.71-5.55-8.25-7.87-18.21-6.3-21.14,2.48-4.63,4-10.08,6.29-13.23,1.93-2.67,4.34-4.84,4.79,5.16.29,6.56-.33,4.77-.56,17.18-.18,9.12,39.72,9,40.09,0,.46-11,1.54-15.56,1.37-22.11,0-1.22,1.41-2.61,2.38-1.87,2.17,1.67,5.73,12,6.2,13.86,1.33,5.32-4.88,14.34-10.16,23.17-3.59,6,2.11,10,5.72,4.42,4.09-6.35,11.4-16.88,13.16-20.5C557.92,519,552,510.49,547.84,501.49Z" transform="translate(-313.84 -297.76)"/><circle class="cls-13" cx="137.52" cy="89.1" r="36.91"/><path class="cls-14" d="M456.15,396a3.71,3.71,0,0,1-5.78.52" transform="translate(-313.84 -297.76)"/><path class="cls-14" d="M478.92,393a3.7,3.7,0,0,1-5.68,1.13" transform="translate(-313.84 -297.76)"/><path class="cls-15" d="M388.85,550.45c.23-2.36,4.68-7.6,8.75-8.93s3.83.63,1.38,2.28-5.58,3.16-3.12,4.45C399.2,550,388.49,554,388.85,550.45Z" transform="translate(-313.84 -297.76)"/><path class="cls-5" d="M535.52,544.77c-3.2-1.39-5.61-2.41-10.08-1.78s-1.32,2.31,0,2.36,3.13-1.18,4.27,1.09S538.57,546.1,535.52,544.77Z" transform="translate(-313.84 -297.76)"/><path class="cls-15" d="M392.39,555.19c-1.79-.52-2.79-1-3.42-3.89s4.74-8.41,5.7-4.94c.54,1.91,2.49,1.51,4.53,1.45s4.43,0,6.1-.2,2.51,2.25.13,2.52c-.94.11-4.05.31-5.9.37-.84,0-.52.91,1.46,1.51,1.22.37,1.83,1.25,5-.39.86-.43,3,1,.5,2.38s-4.21,1.47-5.46.88-1.38.29.07.73a7.93,7.93,0,0,0,4.39.06c1.76-.4,1.91,1.6.11,2s-4.85.94-6.27.36S394.45,555.8,392.39,555.19Z" transform="translate(-313.84 -297.76)"/><path class="cls-15" d="M457.19,541.42c-.27,1.94,2.74,7.65,6.23,10.14s3.68.86,1.75-1.31-4.49-4.46-1.94-4.61C466.68,545.44,457.6,538.5,457.19,541.42Z" transform="translate(-313.84 -297.76)"/><path class="cls-15" d="M461.47,538.94c-1.77-.22-2.8-.18-4,1.85s2.62,8.31,4.25,5.92c.89-1.32,2.62-.31,4.49.46s4.1,1.59,5.61,2.32,2.78-.89.64-2c-.84-.42-3.68-1.67-5.38-2.37-.77-.32-.29-.9,1.67-.68,1.21.14,2-.34,4.59,2.09.7.65,3,.29.95-1.69s-3.58-2.66-4.86-2.63-1.22-.72.22-.55a9.32,9.32,0,0,1,4.07,1.51c1.55.93,2.1-.59.51-1.53s-4.28-2.45-5.72-2.5S463.5,539.19,461.47,538.94Z" transform="translate(-313.84 -297.76)"/><path class="cls-5" d="M491.75,544.91c3.25-1.29,5.69-2.23,10.14-1.46s1.24,2.35-.11,2.36-3.09-1.27-4.31,1S488.66,546.14,491.75,544.91Z" transform="translate(-313.84 -297.76)"/><path class="cls-5" d="M497.85,546.14c-.89,1.88.15,2.13,1.91,3.45a10,10,0,0,1,3.29,3.67c.51,1.36-1.25,2-2.13,1.82.79,1.55-1.62,2.18-3.09,1.22.89,3.12-1.7,2.21-3.88.63s-2.25-1.91-4.41-4.09c-.81-.83-1.45-2-.79-5.07a3.82,3.82,0,0,1,3.69-3.13C495.06,544.37,498.9,543.92,497.85,546.14Z" transform="translate(-313.84 -297.76)"/><path class="cls-5" d="M529.39,545.81c.82,1.9-.22,2.12-2,3.38a10,10,0,0,0-3.4,3.56c-.56,1.34,1.18,2,2.06,1.89-.84,1.52,1.55,2.23,3.05,1.32-1,3.09,1.62,2.27,3.86.76s2.31-1.83,4.54-4c.84-.8,1.52-2,1-5-.22-1.2-1.95-2.75-4.51-3.65S528.41,543.55,529.39,545.81Z" transform="translate(-313.84 -297.76)"/><ellipse class="cls-9" cx="453.26" cy="628.55" rx="13.13" ry="21.73" transform="translate(-567.39 13.08) rotate(-30)"/><ellipse class="cls-16" cx="485.58" cy="611.13" rx="1.73" ry="7.88" transform="translate(-593.26 468.4) rotate(-62.99)"/><ellipse class="cls-17" cx="512.4" cy="595.71" rx="7.85" ry="5.73" transform="translate(-417.55 -189.72) rotate(-10.94)"/><ellipse class="cls-17" cx="469.1" cy="588.34" rx="5.73" ry="7.85" transform="translate(-595.71 337.98) rotate(-55.04)"/><ellipse class="cls-10" cx="504.34" cy="619.35" rx="8.91" ry="6.26" transform="translate(-422.18 -190.82) rotate(-10.94)"/><ellipse class="cls-12" cx="584.14" cy="618.74" rx="36.29" ry="18.79" transform="translate(-571 193.42) rotate(-38.03)"/><ellipse class="cls-18" cx="551.25" cy="595.71" rx="8.97" ry="6.23" transform="translate(-376.25 -233.24) rotate(-6.34)"/><ellipse class="cls-3" cx="183.58" cy="364.36" rx="13.03" ry="4.63"/><ellipse class="cls-19" cx="528.36" cy="604.62" rx="8.2" ry="4.11" transform="translate(-455.52 -135.6) rotate(-15.41)"/><ellipse class="cls-5" cx="475.17" cy="596.89" rx="11.38" ry="4.81" transform="matrix(0.92, -0.4, 0.4, 0.92, -513.89, -56.04)"/><ellipse class="cls-5" cx="215.71" cy="324.28" rx="9.68" ry="6.51"/><ellipse class="cls-5" cx="496.04" cy="581.83" rx="8.12" ry="3.71" transform="translate(-344 -270.63) rotate(-3.04)"/><ellipse class="cls-20" cx="491.02" cy="600.51" rx="8.12" ry="3.71" transform="translate(-344.99 -270.87) rotate(-3.04)"/><g class="cls-7"><path class="cls-8" d="M485.46,372.73a36.91,36.91,0,1,0-65,34.28c-.81-10.15,1.15-19.81,3.62-23.75,3.06-4.88,7.14,3.23,11.93-1.55s11.52-13,26.6-13C473.5,368.74,480.48,370.06,485.46,372.73Z" transform="translate(-313.84 -297.76)"/></g><path class="cls-21" d="M462.61,409.7c-5.33.92-11.16-.76-11.25,3.25s6.24,5.7,11.76,4.53,13-4.41,13-8.21S467.23,408.89,462.61,409.7Z" transform="translate(-313.84 -297.76)"/><g class="cls-22"><path class="cls-23" d="M469.21,415.55c-.81-2.19-8.43-3.49-12.12,2.09S470.75,419.75,469.21,415.55Z" transform="translate(-313.84 -297.76)"/><path class="cls-24" d="M471.19,407.74c-1.46,2.08-14.58,6.77-14.95,2.35S473.44,404.55,471.19,407.74Z" transform="translate(-313.84 -297.76)"/></g><path class="cls-25" d="M684.29,576.34h0c4.71,2.88,4.06,8.4-2.8,9.9a17.79,17.79,0,0,0-5.83,2.4c-1.93,1.09-19.77,11.23-21.14,12a16.75,16.75,0,0,0-3.52,2.69c-4.65,4.32-12,5-16.71,2.11h0c-4.71-2.88-2.8-9.18-.48-11.58a20.31,20.31,0,0,1,4.41-3.23c1.83-1.06,22.84-13.51,24.56-14.61a12.77,12.77,0,0,1,5.24-2.35A22.91,22.91,0,0,1,684.29,576.34Z" transform="translate(-313.84 -297.76)"/><path class="cls-26" d="M650.91,591.89a2.29,2.29,0,0,0-2.17-.33,4.65,4.65,0,0,0-3,4.34,2.68,2.68,0,0,0,.94,2.13l2.34,2,4.56-6Z" transform="translate(-313.84 -297.76)"/><path class="cls-12" d="M654.26,596a4.63,4.63,0,0,1-3,4.34,2.28,2.28,0,0,1-2.12-.29,2.66,2.66,0,0,1-1-2.17,4.63,4.63,0,0,1,3-4.34,2.29,2.29,0,0,1,2.17.33A2.68,2.68,0,0,1,654.26,596Z" transform="translate(-313.84 -297.76)"/><path class="cls-26" d="M677.05,576.24a2.27,2.27,0,0,0-2.17-.33,4.65,4.65,0,0,0-3,4.34,2.71,2.71,0,0,0,.93,2.13l2.34,2,4.56-6Z" transform="translate(-313.84 -297.76)"/><path class="cls-12" d="M680.4,580.39a4.64,4.64,0,0,1-3,4.34,2.27,2.27,0,0,1-2.12-.29,2.66,2.66,0,0,1-1-2.17,4.63,4.63,0,0,1,3-4.34,2.31,2.31,0,0,1,2.18.33A2.68,2.68,0,0,1,680.4,580.39Z" transform="translate(-313.84 -297.76)"/><path class="cls-27" d="M648.65,598.44a3.85,3.85,0,0,1,2.48-4.48" transform="translate(-313.84 -297.76)"/><path class="cls-27" d="M674.68,581.83c0-1.25.75-3,2.22-3.48" transform="translate(-313.84 -297.76)"/><path class="cls-26" d="M639.69,583.83a2.32,2.32,0,0,0-2.17-.33,4.67,4.67,0,0,0-3,4.35,2.72,2.72,0,0,0,.93,2.13l2.34,1.95,4.56-6Z" transform="translate(-313.84 -297.76)"/><path class="cls-12" d="M643,588a4.67,4.67,0,0,1-3,4.35,2.3,2.3,0,0,1-2.12-.3,2.69,2.69,0,0,1-1-2.16,4.67,4.67,0,0,1,3-4.35,2.34,2.34,0,0,1,2.18.33A2.72,2.72,0,0,1,643,588Z" transform="translate(-313.84 -297.76)"/><path class="cls-26" d="M665.83,568.18a2.29,2.29,0,0,0-2.17-.33,4.65,4.65,0,0,0-3,4.35,2.69,2.69,0,0,0,.93,2.13l2.34,1.95,4.56-6Z" transform="translate(-313.84 -297.76)"/><path class="cls-12" d="M669.18,572.33a4.67,4.67,0,0,1-3,4.35,2.33,2.33,0,0,1-2.13-.3,2.71,2.71,0,0,1-1-2.16,4.67,4.67,0,0,1,3-4.35,2.32,2.32,0,0,1,2.17.33A2.7,2.7,0,0,1,669.18,572.33Z" transform="translate(-313.84 -297.76)"/><path class="cls-27" d="M637.42,590.38a3.87,3.87,0,0,1,2.49-4.48" transform="translate(-313.84 -297.76)"/><path class="cls-27" d="M663.46,573.78c0-1.25.75-3,2.21-3.49" transform="translate(-313.84 -297.76)"/><path class="cls-15" d="M561.41,567c2-6.48,4.36-17,6.84-25.11,1.41-4.61,6.22-5.83,12.47.42,5.56,5.56,10.08,10.41,12.37,13.89,4.22,6.41,17.59,20.51,13,22.34-3.5,1.37-21.27-9.3-24.67-15.35-2.76-4.91-2.4-7.05-4.47-10.9-1.62-3-3.82.59-4.93,4.36s-4.34,9-5.25,12.09S560.36,570.43,561.41,567Z" transform="translate(-313.84 -297.76)"/><path class="cls-15" d="M579.47,577.33c2-6.48,5.53-16.26,6.84-25.1.7-4.77,6.22-5.83,12.46.41,5.56,5.56,10.09,10.41,12.38,13.89,4.22,6.41,3,10.22-1.61,12.05-3.49,1.37-8.32-1.14-10.1-5.06-2.33-5.12-2.4-7-4.47-10.89-1.62-3-3.82.59-4.93,4.36s-4.34,9-5.26,12.09S578.42,580.72,579.47,577.33Z" transform="translate(-313.84 -297.76)"/><ellipse class="cls-8" cx="529.54" cy="588.14" rx="10.62" ry="18.71" transform="translate(-534.9 541.2) rotate(-66.48)"/><ellipse class="cls-12" cx="478.91" cy="566.57" rx="9.43" ry="14.17" transform="translate(-506.12 584.81) rotate(-75)"/><path class="cls-27" d="M419.13,368.88a33.55,33.55,0,0,1,9.66-11" transform="translate(-313.84 -297.76)"/><path class="cls-27" d="M631.4,600.51a8.75,8.75,0,0,1,2.41-6.61" transform="translate(-313.84 -297.76)"/><path class="cls-9" d="M339.08,591.17c5.81,5.81,16.28,7,20.93,7s9.6,1,9.6-7.82,5.63-26.78,1.45-31-15.12-7.93-19.77-7.93-13.09,21.39-15.41,26.91S335.15,587.24,339.08,591.17Z" transform="translate(-313.84 -297.76)"/><path class="cls-9" d="M371.54,560c3.27-1.65,3.88-2.2,4.75,2.18s1.38,15.94-.07,19.23a14.23,14.23,0,0,1-7.49,7.62c-3.63,1.55-4.65,5.19-1.74,4s10.59-8.4,11.63-10.11c2.9-4.78,2.52-12.35,1.31-20-.43-2.73-4.78-8.06-11-5.26S368.78,561.4,371.54,560Z" transform="translate(-313.84 -297.76)"/><path class="cls-9" d="M356.54,552.62c3.26-1.65,3.87-2.21,4.74,2.18s1.39,15.94-.07,19.22a14.21,14.21,0,0,1-7.49,7.63c-3.63,1.55-4.65,5.18-1.74,4s10.59-8.4,11.63-10.12c2.9-4.77,2.52-12.34,1.31-20-.43-2.73-4.78-8.06-11-5.26S353.77,554,356.54,552.62Z" transform="translate(-313.84 -297.76)"/><path class="cls-27" d="M348.53,566.1c-1.77-.84-2.61.22-3.1,1.29s-2,4.25-2,4.25" transform="translate(-313.84 -297.76)"/><path class="cls-27" d="M361.1,569.6c-2.21-.8-2-.09-2.57,1.24s-1.33,4.25-1.33,4.25" transform="translate(-313.84 -297.76)"/><path class="cls-27" d="M353.25,550.63a8.37,8.37,0,0,1,5.6-1" transform="translate(-313.84 -297.76)"/><path class="cls-27" d="M346.78,555.56c1.18-1.63,2.21-4.67,7.3-3.58a43.08,43.08,0,0,1,6.43,1.68" transform="translate(-313.84 -297.76)"/><path class="cls-27" d="M585.93,553.55c.78-2.74,1.94-6,6.23-5.06" transform="translate(-313.84 -297.76)"/><path class="cls-27" d="M568.25,541.93c.6-2.85,2.9-4.32,6-3.71" transform="translate(-313.84 -297.76)"/><path class="cls-9" d="M532.73,380.61c-1.08,7.16,2.15,13.53,7.22,14.25a38.37,38.37,0,0,0,4.37.47c4.36-.62,8.3-5.4,9.24-11.67s-1.33-11.72-5.19-13.62a32.6,32.6,0,0,0-4.51-1.1C538.79,368.23,533.81,373.45,532.73,380.61Z" transform="translate(-313.84 -297.76)"/><circle class="cls-5" cx="265.8" cy="89.1" r="36.91"/><path class="cls-21" d="M574.31,408.77c5.52-.7,11-5.29,11.91.37s-5.12,10.48-10.87,10.9-13.85-1.37-14.63-6.77S569.53,409.38,574.31,408.77Z" transform="translate(-313.84 -297.76)"/><g class="cls-28"><path class="cls-23" d="M568.87,419.61c.37-3.44,7.74-8.17,12.54-1.62S568.15,426.16,568.87,419.61Z" transform="translate(-313.84 -297.76)"/><path class="cls-24" d="M565.34,409.24c1.87,2.4,15.94,4.1,15.43-2.31S562.45,405.55,565.34,409.24Z" transform="translate(-313.84 -297.76)"/></g><ellipse class="cls-8" cx="267.61" cy="98.8" rx="1.99" ry="2.76"/><ellipse class="cls-8" cx="243.62" cy="95.26" rx="1.99" ry="2.76"/><path class="cls-8" d="M543.91,371.07c-3.66,5.48,3.43,3.43,9.06-2.19a16.71,16.71,0,0,0,11.11-3.08c2.76,3.75,10.6,1.26,15.56.63,1.7,1.7,7.12,3.77,10.61,3.77,1,2.82,2.23,7.52,5,7.52,1.66,3.24,5.57,5.8,7,4.39,2.72,1.76,9.66,2.37,10.33,0s4.91,1.73,5.73-.73.06-6.3-1.12-7.49c0-3.49-.86-5.15-2.44-6.73-1.26-3.57-1.87-5.93-4.92-6.57-1-3.49-5.51-7-7.58-7-2-2-5-4.34-7.41-4.34a13,13,0,0,0-8.35-2.21c-2.83-1.2-8.67-1.14-10.79-.68-3.78-.6-7.48,0-9.6,1.29-3.2.37-7.69,3.57-8.48,4-2.33,0-6.13,4.17-6.61,5.65s-4.19,8.87-4.19,8.87Z" transform="translate(-313.84 -297.76)"/><path class="cls-9" d="M540.49,377.07c3.31-14.06,11.38-24.27,25-27.21,6.13-1.41,12.27-.77,18.58,0,16.3,2.81,31.72,16.22,33,34.55l-7.39,1.87c-1.15-16.34-17.57-29.66-30.08-32.17-6.63-1-12-1.26-17,.35-11.63,4.38-14.07,10.62-18.78,23.36Z" transform="translate(-313.84 -297.76)"/><path class="cls-9" d="M602.38,388.21c-1,7,2.09,13.15,7,13.84a34.12,34.12,0,0,0,4.24.46c4.24-.6,8.07-5.25,9-11.34s-1.3-11.39-5-13.23a30.59,30.59,0,0,0-4.39-1.08C608.27,376.17,603.42,381.25,602.38,388.21Z" transform="translate(-313.84 -297.76)"/><path class="cls-27" d="M614.67,379a12.8,12.8,0,0,0-8,11" transform="translate(-313.84 -297.76)"/><path class="cls-27" d="M555,354.21c2.44-1.44,10.14-5.18,18.52-5.18" transform="translate(-313.84 -297.76)"/><circle class="cls-5" cx="291.05" cy="186.04" r="36.91"/><ellipse class="cls-8" cx="278.32" cy="198.23" rx="1.99" ry="2.76"/><ellipse class="cls-8" cx="258.8" cy="191.94" rx="1.99" ry="2.76"/><path class="cls-21" d="M590.4,506.16c-5.18-1.54-9.66-5.64-11.52-2.1s3,7.89,8.51,9.3,13.58,1.81,15.29-1.58S594.9,507.5,590.4,506.16Z" transform="translate(-313.84 -297.76)"/><g class="cls-29"><path class="cls-23" d="M593.71,514.35c.25-2.33-6-6.89-11.78-3.53S593.22,518.79,593.71,514.35Z" transform="translate(-313.84 -297.76)"/><path class="cls-24" d="M599,508.23c-2.22,1.21-16.06-.43-14.43-4.55S602.39,506.37,599,508.23Z" transform="translate(-313.84 -297.76)"/></g><path class="cls-8" d="M618.57,474.61c5.59,5.59,7.47-.22,9.14,6s0,8.35,1.85,16.16c2,8.48,10.18,8.68,11.28,4s2-16.94,1.28-21.12c-.56-3.32.15-4.51-3.31-9.9s-18.73-7.17-20.24-2.87S614.73,470.78,618.57,474.61Z" transform="translate(-313.84 -297.76)"/><path class="cls-30" d="M568.9,470.14c-3.64,1.93-9.51,3.57-14,5.48-3.36,1.43-9.32,5.5-.09,4.82,8.94-.66,18.58,6,23,8.12,9.23,4.4,25.42-6.39,29.18-9s9.82-4.28,13.71-5.7C594.4,472.5,590.21,470.69,568.9,470.14Z" transform="translate(-313.84 -297.76)"/><path class="cls-9" d="M568.9,470.14a101.36,101.36,0,0,1-.66-16.85c.13-3.37,15.54-11,19.55-12.43s9.76-4.79,18-3.67,14.59,2.48,21.84,6,9,8.3,9.67,11,.74,7.8,1.55,15.52a155.94,155.94,0,0,1-30.24,7.12C597.11,478.37,569.53,475.05,568.9,470.14Z" transform="translate(-313.84 -297.76)"/><path class="cls-27" d="M557.46,474.6c3.42-1.24,11.44-4.46,11.44-4.46" transform="translate(-313.84 -297.76)"/><path class="cls-27" d="M573.49,448.21a129.13,129.13,0,0,1,11.79-6.32" transform="translate(-313.84 -297.76)"/><g class="cls-7"><path class="cls-8" d="M522,495.62a36.78,36.78,0,0,0,14.59-6.83c-.47-.27-.94-.53-1.41-.82l-.06,0a40.92,40.92,0,0,0-14.43-5.23c-6.86-1.25-20.83,0-20.83,0-5.54,2.16-7.61,1.88-10.25,4.54A36.89,36.89,0,0,0,522,495.62Z" transform="translate(-313.84 -297.76)"/></g><circle class="cls-5" cx="200.14" cy="158.5" r="36.91"/><path class="cls-21" d="M512.56,481.52c-5.37,0-10.93-3.11-11.5,1.43s5.48,7.77,11.06,7.54,13.33-2.42,13.81-6.74S517.22,481.53,512.56,481.52Z" transform="translate(-313.84 -297.76)"/><g class="cls-31"><path class="cls-23" d="M518.37,489.53c-.53-2.67-7.9-5.69-12.21-.07S519.38,494.62,518.37,489.53Z" transform="translate(-313.84 -297.76)"/><path class="cls-24" d="M521.26,481c-1.69,2.07-15.2,4.77-15-.33S523.86,477.83,521.26,481Z" transform="translate(-313.84 -297.76)"/></g><ellipse class="cls-8" cx="211.01" cy="171.47" rx="1.99" ry="2.76"/><ellipse class="cls-8" cx="186.12" cy="171.47" rx="1.99" ry="2.76"/><circle class="cls-32" cx="186.72" cy="169.3" r="8.49"/><circle class="cls-32" cx="210.05" cy="168.81" r="8.49"/><path class="cls-32" d="M508.22,463.86a8.45,8.45,0,0,1,8.13-.38" transform="translate(-313.84 -297.76)"/><path class="cls-33" d="M552.81,456.79c-11.82,2.8-21.55,5.58-21.55,5.58" transform="translate(-313.84 -297.76)"/><line class="cls-33" x1="178.96" y1="164.77" x2="161.96" y2="159.03"/><path class="cls-27" d="M492.49,464.42a7.56,7.56,0,0,1,5.44-5.43" transform="translate(-313.84 -297.76)"/><path class="cls-27" d="M515.75,463.84a7.59,7.59,0,0,1,5.44-5.43" transform="translate(-313.84 -297.76)"/><path class="cls-8" d="M499.2,440.11a1.89,1.89,0,0,1,2.62-1.82,52.8,52.8,0,0,0,17.57,3.89,1.07,1.07,0,0,0,.64-2,1.2,1.2,0,0,1-.21-.17,1.26,1.26,0,0,1,1.37-2c4.54,1.42,8.69,1.54,11.33,2.12,6.74,1.5,9.14,2.91,9.6,9.37s-.71,15.12-2,20.66a1.6,1.6,0,0,0,2.8,1.36c.08-.1.31-.47.59-1a.83.83,0,0,1,1.55.54c-.47,3.29-1.25,7.45-1.69,11a35.15,35.15,0,0,0,.06,8.06,1,1,0,0,0,2,.22c.25-.74.49-1.45.7-2.12a.66.66,0,0,1,1.28.22c-.09,3.1-.23,6.8-.34,10a1,1,0,0,0,2,.35,40.76,40.76,0,0,0,1.71-14A33.61,33.61,0,0,1,552.61,472c2-6.45,1.69-26.93-5-38.18a33.78,33.78,0,0,0-19.29-14.46c-10.36-3.05-21.45-1.14-26.58,1.09a5.78,5.78,0,0,1-2.57.45c-3.6-.12-10.36,1.58-12.94,4.16C483.29,428,478,436.26,477,440.76a108.49,108.49,0,0,0-2,34.81c.94,8.32,1.61,13.49,2.3,17.89a2,2,0,0,0,3.87.39c1-2.71.47-6.11.19-9.2a.71.71,0,0,1,1.32-.41,11.77,11.77,0,0,0,.94,1.43c.81.95,1.69.35,2.29-.74,2.27-4.15,1.47-7,1.47-11.27,0-3.89-1.76-8.73-2.05-13.27A.86.86,0,0,1,487,460a12.48,12.48,0,0,1,.65,1.55,1,1,0,0,0,1.88-.17c.33-4.89.33-8.47,3.54-13.17C494.9,445.45,499.33,445.32,499.2,440.11Z" transform="translate(-313.84 -297.76)"/><path class="cls-27" d="M481.78,430.9c2.1-4.8,5.09-6.46,9.08-8.45" transform="translate(-313.84 -297.76)"/><g class="cls-7"><path class="cls-8" d="M438.26,514.32c-2.13-1-4.54-1.66-8.63-2.81l-31.16,3.15s-.21.4-.47,1.06a26.55,26.55,0,0,0-2.64,1.49,36.91,36.91,0,0,0,42.9-2.89Z" transform="translate(-313.84 -297.76)"/></g><path class="cls-9" d="M440.64,451c11.62-2.08,17.06,13.85,18.35,24.47a37.72,37.72,0,0,0-6.21-5.83c3.11,8.94.13,14.31-4.53,20.85s-10.75-18-10.75-18Z" transform="translate(-313.84 -297.76)"/><circle class="cls-15" cx="100.95" cy="184.22" r="36.91"/><path class="cls-21" d="M427.21,503c5.52-.7,11-5.3,11.91.37s-5.12,10.48-10.87,10.9-13.86-1.38-14.63-6.77S422.43,503.63,427.21,503Z" transform="translate(-313.84 -297.76)"/><g class="cls-34"><path class="cls-23" d="M421.77,513.85c.37-3.43,7.74-8.17,12.54-1.61S421.05,520.41,421.77,513.85Z" transform="translate(-313.84 -297.76)"/><path class="cls-24" d="M418.24,503.49c1.87,2.39,15.93,4.1,15.43-2.32S415.35,499.79,418.24,503.49Z" transform="translate(-313.84 -297.76)"/></g><ellipse class="cls-8" cx="131.26" cy="189.89" rx="1.99" ry="2.76"/><ellipse class="cls-8" cx="112.07" cy="195.47" rx="1.99" ry="2.76"/><path class="cls-9" d="M442.44,434.89c8.42,10.4,5.41,35.8-15.52,31s-23.81-2.79-23.45,2.44.6,10.93-1.17,13.47a19.26,19.26,0,0,0-5.91-9.36c2.32,6.94.7,23.34-1.71,27.52-.62-5.29-2.27-5.84-2.77-6.06.47,3.88,1.73,34.11-14,43.34,1.6-5.24,3.63-28.25,1.4-36.44-3.09-11.35-6.36-22.34-3.18-34,2.19-8,4.64-9.42,7.6-9-.84-5.87,8.2-11.69,13.1-14.55s15.65-5.78,21.95-3.34,12.61,0,14.18-6.8c1.47,5.57-.05,8.82-3,10.89C436.84,444.47,440.29,444.85,442.44,434.89Z" transform="translate(-313.84 -297.76)"/><path class="cls-27" d="M383.78,454.63c1.69-2.41,5.94-7.22,9.83-9.61" transform="translate(-313.84 -297.76)"/><ellipse class="cls-6" cx="183.4" cy="341.69" rx="13.21" ry="4.87"/></g></g></svg>