<svg xmlns="http://www.w3.org/2000/svg" xmlns:xlink="http://www.w3.org/1999/xlink" viewBox="0 0 236.17 188.91"><defs><style>.cls-1,.cls-14,.cls-15{fill:none;}.cls-2{isolation:isolate;}.Graphic-Style-5{fill:#889be5;opacity:0.3;}.cls-3{fill:#fff;}.cls-4{fill:#52d2bc;}.cls-5{fill:#4a23e8;}.cls-6{fill:#8076fa;}.cls-7{fill:#ffdce0;}.cls-8{fill:#b0bdee;}.cls-9{mix-blend-mode:multiply;opacity:0.15;}.cls-10{clip-path:url(#clip-path);}.cls-11{fill:#a83e54;}.cls-12{clip-path:url(#clip-path-2);}.cls-13{fill:#ff6581;}.cls-14{stroke:#000;stroke-linejoin:round;}.cls-14,.cls-15{stroke-linecap:round;stroke-width:1.5px;}.cls-15{stroke:#fff;stroke-miterlimit:10;}</style><clipPath id="clip-path" transform="translate(-385.6 -404.86)"><circle class="cls-1" cx="483.96" cy="487.01" r="36.91"/></clipPath><clipPath id="clip-path-2" transform="translate(-385.6 -404.86)"><path class="cls-1" d="M499.39,490c5.44-1.17,10.54-6.21,11.9-.65s-4.21,10.88-9.91,11.79-13.92-.2-15.15-5.51S494.67,491,499.39,490Z"/></clipPath></defs><g class="cls-2"><g id="Layer_1" data-name="Layer 1"><path class="Graphic-Style-5" d="M457.71,419.8c73.94,18.9,84.53-14.64,118.07-14.94s48.37,18.14,45.69,43.75-25.86,56.79-14.71,86.06c14.71,38.63-5.31,61.05-33.91,59s-21.13-20.79-120-16.16C419.77,579,390.58,587,388.27,546c-3.58-63.46,27.4-32.29,0-90.27C376.19,430.16,406.23,406.64,457.71,419.8Z" transform="translate(-385.6 -404.86)"/><circle class="cls-3" cx="119.23" cy="103.89" r="61.09"/><path class="cls-4" d="M511.49,575.56c0-7.12-3.31-30.27-4.61-37.4s1.82-4.66,3.63-1.68S518.15,549,522.68,549s11.84-2.23,17.45-4.71,2.77-8.2-2.15-7.56-12.71,3.34-14.91-.16-5.44-6.6-9.43-12.69-7-5.18-14.83-7.38l-31.17,3.15s-3.88,7.25,1.13,12.95c4.2,4.78,7,41.08,7.29,48S511.49,582.68,511.49,575.56Z" transform="translate(-385.6 -404.86)"/><path class="cls-5" d="M449.64,572.61c-4.46-14.83-2.2-28.75,9.33-29.27s13.56,4.08,19.29,1.17c11-5.57,11.31-13.51,19.95-14.89,12.72-2-2.31,10.7.4,16.1,2.31,4.58,1.67-.56,1.67,2.67,0,6.4,4.76,8.29,9.06,8.94s10.67,7.65,3,10.5-19.12-.79-24.51,2.45-9,6.24-15.54,9.32S452.32,581.5,449.64,572.61Z" transform="translate(-385.6 -404.86)"/><path class="cls-5" d="M498.61,545.72c5.12-2.2,60.39-30.54,60.39-30.54l3,8.74-63.24,32.41Z" transform="translate(-385.6 -404.86)"/><path class="cls-5" d="M557.47,513.65c-1.36,3.66,4.78,19,12,11.82,4.36-4.31,8-5,12.11-4.4s6.35-2,1.94-6.52-13.29-5.06-17.82-5.26S558.7,510.34,557.47,513.65Z" transform="translate(-385.6 -404.86)"/><path class="cls-4" d="M467.64,519.69c-2.87,1.58-7.61,2.28-9.56,9.79s-3.26,12.31-3,19.82.91,12.17,8.16,13.34a52.81,52.81,0,0,0,20.72-1.3c4.92-1.42,4.15-8.15-2.33-6.86a28.54,28.54,0,0,1-14.37-.78c-3.11-.9-2.21-10.23-1.56-14.76s3.84-6.82,5.4.35" transform="translate(-385.6 -404.86)"/><path class="cls-5" d="M553.3,447.11h0c-8.64.55-15.28,7.68-14.77,15.84l.67,10.45c.31,5.47,8,6.05,7.72-1.08l-.8-9.1c-.45-7.14,2.22-13.58,8.16-14h0" transform="translate(-385.6 -404.86)"/><rect class="cls-6" x="542.91" y="454.04" width="21.43" height="35.48" rx="10.72" transform="translate(-414.44 -368.76) rotate(-3.64)"/><path class="cls-5" d="M554.28,449.26c4.27-.65,6.93,4.15,7.38,11.28l1,10.77c0,6.2,7.87,5.88,7.89-.18L570,461c-.52-8.16-8-14.39-16.65-13.84" transform="translate(-385.6 -404.86)"/><path class="cls-5" d="M551.11,448.23c-.2-3.11-1-16.58-1.23-17.61s5-3.18,5.5-.59.91,16.52,1,17.88S551.11,448.23,551.11,448.23Z" transform="translate(-385.6 -404.86)"/><path class="cls-5" d="M611.88,416.69,541.44,435a1.51,1.51,0,0,0-1,2,1.6,1.6,0,0,0,1.91,1.31l72-18.71Z" transform="translate(-385.6 -404.86)"/><circle class="cls-7" cx="178.33" cy="108.53" r="1.99"/><circle class="cls-7" cx="185.27" cy="108.68" r="1.99"/><circle class="cls-7" cx="192.13" cy="110.16" r="1.99"/><path class="cls-8" d="M548,536.62c.79-1.47-.06-4.15-1.09-6.33s-3.11-4.2-4.18-5.6c-2.09-2.76-4-.53-2.71,1.38s3.27,4.09,3.41,6.08c.17,2.65-.15,4.83-.76,5.15S547.33,537.87,548,536.62Z" transform="translate(-385.6 -404.86)"/><path class="cls-8" d="M544.27,537.17a3.46,3.46,0,0,0,.38-4.1c-.81-1.29-1.1-1.9-3.76-3.76s-3,1.71-1.53,2.57,3.37,2.56.86,3.91c-1.24.66-1.7.33-3.87,1.77-3.45,2.28-1.31,8.48,3.51,6.91,3.25-1.06,10.31-3.73,11.27-5.16s1.39-7.67.73-9.24a11.1,11.1,0,0,0-3.6-4.63c-2.77-2.27-4.15.76-2.29,2.28,2.16,1.77,2.35,2.21,2.78,2.95.33.57-.28,2.7-.78,3.73" transform="translate(-385.6 -404.86)"/><path class="cls-8" d="M499,557.49a7.9,7.9,0,0,0,3.7-2.76c1.13-1.44.12-3.13-2.2-3.76s-4,.25-2.95,1.19,2.86,1.13-.32,2.57S494.26,559.75,499,557.49Z" transform="translate(-385.6 -404.86)"/><path class="cls-8" d="M497.77,554.8c3.51-1,4.67-3,4-4.49s-2.1-1.91-3.7-2c-3.05-.18-3.63,2.49-1.5,3.19s.72-.28-.91-.22-5.05.7-4.58-.5,2.05-1.83,3.8-2a1.47,1.47,0,0,0,0-2.94c-2-.25-4.49.78-6.69,1.85s-4.23,3.72-5.89,6.46c-1.41,2.32.56,6.4,3.13,7s9.63,2,11.7,1.06,5.52-3.82,5.83-5.51-.71-1.7-1.72-2.51Z" transform="translate(-385.6 -404.86)"/><g class="cls-9"><path class="cls-5" d="M498.81,516.54l-31.17,3.15c-1.16.64-2.62,1.14-4.08,2a36.88,36.88,0,0,0,45-2.54C506.15,518,503.25,517.79,498.81,516.54Z" transform="translate(-385.6 -404.86)"/></g><path class="cls-5" d="M517,470.14C512.84,456.35,501.76,446,488.26,444c-6.07-1-11.88-.11-18,1.09-15.68,3.94-27.37,19.33-27.37,37.71l5.3-.46c0-16.38,10.48-32.21,22.5-35.59,6.39-1.44,12.43-2,17.44-.73,11.64,3.56,20.42,13,23.88,25.62Z" transform="translate(-385.6 -404.86)"/><path class="cls-5" d="M526.07,474.49c1.81,8.32-1.39,16.08-7.14,17.33a41.08,41.08,0,0,1-5,.91c-5.06-.36-10-5.66-11.54-12.94s.58-13.87,4.86-16.42a36.38,36.38,0,0,1,5.08-1.67C518.13,460.45,524.26,466.18,526.07,474.49Z" transform="translate(-385.6 -404.86)"/><circle class="cls-8" cx="98.36" cy="82.15" r="36.91"/><g class="cls-10"><path class="cls-6" d="M456.59,495.52c9.2,6.23,23.11,11.91,25.67,2.41s6.28-12.26,15.34-13.9,16.15-1.55,18.22,3,5.87,6.52,5,13.25S499,529.79,486.12,528.41s-30.65-5-35.14-16.75S446.41,488.61,456.59,495.52Z" transform="translate(-385.6 -404.86)"/></g><path class="cls-11" d="M499.39,490c5.44-1.17,10.54-6.21,11.9-.65s-4.21,10.88-9.91,11.79-13.92-.2-15.15-5.51S494.67,491,499.39,490Z" transform="translate(-385.6 -404.86)"/><path class="cls-5" d="M459.16,488.6c1.81,8.31-1.39,16.07-7.14,17.32a41.28,41.28,0,0,1-5,.92c-5.05-.37-9.95-5.66-11.53-12.94s.58-13.88,4.86-16.43a35.08,35.08,0,0,1,5.08-1.66C451.22,474.55,457.35,480.28,459.16,488.6Z" transform="translate(-385.6 -404.86)"/><g class="cls-12"><path class="cls-13" d="M494.88,501.25c.08-3.46,7-8.8,12.36-2.68S494.73,507.84,494.88,501.25Z" transform="translate(-385.6 -404.86)"/><path class="cls-3" d="M490.49,491.22c2.06,2.23,16.22,2.73,15.18-3.62S487.3,487.78,490.49,491.22Z" transform="translate(-385.6 -404.86)"/></g><path class="cls-14" d="M479.52,477.13a3.71,3.71,0,0,1,5.48-1.9" transform="translate(-385.6 -404.86)"/><path class="cls-14" d="M502.45,471.31a3.69,3.69,0,0,1,5.47-1.91" transform="translate(-385.6 -404.86)"/><path class="cls-5" d="M453.75,482c12-8.37,17.35-13.21,22.36-14.07s27.66-5.18,31.12-5.57,8.76-1.16,7.72,3.37c-1.14-1.4-2.82-.76-2.43.54s3.32,7.13.28,8.45-7.72,2.22-9.33,1.93-5.91-9.15-9-8.11.17,10.27-2.81,11.56-11.95,2.1-13.76,1.9-3.83-6.15-5-7-16.06,7.58-18.13,9.13S450.37,484.31,453.75,482Z" transform="translate(-385.6 -404.86)"/><path class="cls-15" d="M465.06,520.9c-2.34,1.34-6.63,2.76-8.3,13.8" transform="translate(-385.6 -404.86)"/><path class="cls-15" d="M543,472.29a73.85,73.85,0,0,1-.38-7.64c0-6.81,9.28-15.32,18.36-7.22" transform="translate(-385.6 -404.86)"/><path class="cls-15" d="M480.47,479.24a49.68,49.68,0,0,1,4.2-10.38" transform="translate(-385.6 -404.86)"/><path class="cls-15" d="M505.18,474.05a44.18,44.18,0,0,1,3.45-9" transform="translate(-385.6 -404.86)"/><path class="cls-15" d="M444.34,478.34a12.65,12.65,0,0,1,8.54,10.42" transform="translate(-385.6 -404.86)"/><path class="cls-15" d="M484.41,540.36c3.44-3.62,7.82-10.6,15.37-10.93" transform="translate(-385.6 -404.86)"/><path class="cls-15" d="M559.13,521.68c-2.32-5.38-3.36-12.55,5.7-12.41" transform="translate(-385.6 -404.86)"/><path class="cls-15" d="M455.75,463.22a38.64,38.64,0,0,1,14.57-10.51" transform="translate(-385.6 -404.86)"/></g></g></svg>