<svg xmlns="http://www.w3.org/2000/svg" xmlns:xlink="http://www.w3.org/1999/xlink" viewBox="0 0 168.71 190.91"><defs><style>.cls-1{fill:#fff;}.cls-13,.cls-18,.cls-2,.cls-20,.cls-22,.cls-7,.cls-8{isolation:isolate;}.Graphic-Style-2,.cls-23{fill:#4a23e8;}.Graphic-Style-2{mix-blend-mode:multiply;opacity:0.15;}.cls-3{fill:#f9879a;}.cls-13,.cls-22,.cls-4{fill:#6534ff;}.cls-5,.cls-6{fill:#fccdd3;}.cls-10,.cls-19,.cls-25,.cls-5{stroke:#6535ff;}.cls-10,.cls-11,.cls-16,.cls-17,.cls-19,.cls-21,.cls-24,.cls-25,.cls-5{stroke-linecap:round;stroke-linejoin:round;}.cls-5{stroke-width:0.41px;}.cls-20,.cls-7{fill:#bbc4ef;}.cls-7{opacity:0.44;}.cls-8{fill:#070707;opacity:0.18;}.cls-9{fill:#52d2bc;}.cls-10,.cls-11,.cls-16,.cls-17,.cls-19,.cls-21,.cls-24,.cls-25{fill:none;}.cls-10,.cls-11{stroke-width:2.23px;}.cls-11,.cls-21{stroke:#bbc4ef;}.cls-12{fill:#8076fa;}.cls-13,.cls-18,.cls-20{opacity:0.32;}.cls-14{fill:#62bcf9;}.cls-15{fill:#b3ebe2;}.cls-16,.cls-17{stroke:#6534ff;}.cls-16{stroke-width:1.4px;}.cls-18{fill:#3e1ec4;}.cls-19,.cls-21{stroke-width:2.15px;}.cls-22{opacity:0.1;}.cls-24{stroke:#fff;}.cls-24,.cls-25{stroke-width:1.51px;}.cls-26{fill:#b0bdee;}.cls-27{mask:url(#mask);}</style><mask id="mask" x="64.03" y="30.79" width="64.49" height="64.58" maskUnits="userSpaceOnUse"><g transform="translate(-422.54 -392.8)"><g id="SVGID"><polygon class="cls-1" points="486.57 423.58 551.07 423.58 551.07 488.16 486.57 488.16 486.57 423.58"/></g></g></mask></defs><g class="cls-2"><g id="Layer_1" data-name="Layer 1"><circle class="Graphic-Style-2" cx="131.05" cy="106.61" r="20.38"/><circle class="cls-3" cx="131.05" cy="103.17" r="20.38"/><path class="cls-4" d="M552.73,509.15a2.42,2.42,0,0,1-1.55-.56l-7.76-6.41a2.39,2.39,0,0,1-.87-1.82V486.69a1,1,0,0,1,.71-1,30.32,30.32,0,0,1,18.93,0,1,1,0,0,1,.71,1v13.67a2.35,2.35,0,0,1-.86,1.82l-7.75,6.41a2.46,2.46,0,0,1-1.56.56Z" transform="translate(-422.54 -392.8)"/><polygon class="cls-5" points="131.58 106.61 128.32 104.6 131.53 109.19 134.91 104.72 131.58 106.61"/><polygon class="cls-5" points="128.33 103.53 128.35 103.53 131.62 105.46 134.89 103.65 134.91 103.65 134.9 103.65 134.91 103.64 131.75 98.01 128.32 103.52 128.34 103.53 128.33 103.53"/><path class="cls-6" d="M563.3,486.32h0a29.79,29.79,0,0,0-18.85,0h0a2,2,0,0,0-1.32,1.84v13.42a3.27,3.27,0,0,0,1.16,2.51l7.48,6.3a3.28,3.28,0,0,0,4.21,0l7.48-6.3a3.27,3.27,0,0,0,1.16-2.51V488.16a1.94,1.94,0,0,0-1.32-1.84Zm.38,15.26a2.29,2.29,0,0,1-.83,1.79l-7.48,6.3a2.31,2.31,0,0,1-3,0l-7.48-6.3a2.33,2.33,0,0,1-.84-1.79V488.16a1,1,0,0,1,.69-1,28.78,28.78,0,0,1,18.25,0,1,1,0,0,1,.68,1Z" transform="translate(-422.54 -392.8)"/><path class="cls-7" d="M564.34,501.47V488.1a1.92,1.92,0,0,0-1.3-1.83h0a27.92,27.92,0,0,0-7.56-1.48,10.67,10.67,0,0,1,1.67,4,30.74,30.74,0,0,1,.51,5.26,11.64,11.64,0,0,1-.12,2.83c-.45,2.26-2.13,4.05-2.94,6.2a10.66,10.66,0,0,0-.39,5.55,17.53,17.53,0,0,0,.54,2.25,3.11,3.11,0,0,0,1.14-.63L563.2,504A3.31,3.31,0,0,0,564.34,501.47Z" transform="translate(-422.54 -392.8)"/><path class="cls-8" d="M546.82,500l-5-1.34a.68.68,0,0,1-.49-.2.64.64,0,0,1-.21-.48l0-2.46a.69.69,0,0,1,.7-.68l5,1.34a.29.29,0,0,1,.22.49l-1.8.55a.3.3,0,0,0,0,.4l1.79,1.89a.27.27,0,0,1,.05.31A.31.31,0,0,1,546.82,500Zm14.11-3.85,5-1.31a.69.69,0,0,1,.7.69l0,2.48a.67.67,0,0,1-.2.48.74.74,0,0,1-.5.2l-5,1.31a.28.28,0,0,1-.27-.18.29.29,0,0,1,.05-.32l1.8-1.88a.28.28,0,0,0,0-.4l-1.78-.58a.31.31,0,0,1-.06-.32.32.32,0,0,1,.28-.17Z" transform="translate(-422.54 -392.8)"/><path class="cls-9" d="M546.82,498.83l-5,0a.68.68,0,0,1-.49-.2.64.64,0,0,1-.21-.48l0-3.78a.69.69,0,0,1,.7-.68l5,0a.31.31,0,0,1,.28.18.3.3,0,0,1-.06.31l-1.8,1.88a.29.29,0,0,0,0,.39l1.79,1.9a.29.29,0,0,1,0,.31A.3.3,0,0,1,546.82,498.83Zm14.11-5.16,5,0a.69.69,0,0,1,.7.69l0,3.77a.66.66,0,0,1-.2.48.74.74,0,0,1-.5.2l-5,0a.29.29,0,0,1-.22-.49l1.8-1.88a.27.27,0,0,0,0-.39l-1.78-1.89a.28.28,0,0,1-.05-.31.29.29,0,0,1,.27-.18Z" transform="translate(-422.54 -392.8)"/><path class="cls-10" d="M545,497l1.79,1.93a.31.31,0,0,1,.05.33.32.32,0,0,1-.28.17l-5,0a.7.7,0,0,1-.5-.2.66.66,0,0,1-.2-.5v-3.86m24.63,4.58h-4.86a.29.29,0,0,1-.27-.19.31.31,0,0,1,0-.33l1.75-1.95a.33.33,0,0,0,0-.42l-1.74-2" transform="translate(-422.54 -392.8)"/><path class="cls-11" d="M546,502.84l6.6,5.74" transform="translate(-422.54 -392.8)"/><circle class="Graphic-Style-2" cx="132.43" cy="67.61" r="36.29"/><circle class="Graphic-Style-2" cx="129.98" cy="138" r="28.11"/><circle class="cls-12" cx="129.98" cy="132.47" r="28.11"/><path class="cls-13" d="M567.5,523.09l-1.33-2.37-.11-2.74a3.82,3.82,0,0,0-2-3.23l-1.86-1-1-1.85A3.68,3.68,0,0,0,558,510h-2.65L553,508.71a3.61,3.61,0,0,0-3.7.15L547.51,510h-2.1a3.68,3.68,0,0,0-3.21,1.9l-1.33,2.36-2.26,1.45a3.85,3.85,0,0,0-1.74,3.35l.08,2.15-1.05,1.85a3.91,3.91,0,0,0,0,3.81l1.33,2.37.1,2.76a3.8,3.8,0,0,0,2,3.22l1.85,1,1.05,1.85a3.68,3.68,0,0,0,3.21,1.9h2.21v6.15a.5.5,0,0,0,.29.47.49.49,0,0,0,.54-.07l3.14-2.69a.51.51,0,0,1,.66,0l3,2.65a.48.48,0,0,0,.55.08.53.53,0,0,0,.29-.47V540h2a3.68,3.68,0,0,0,3.2-1.91l1.33-2.37,2.27-1.45a3.85,3.85,0,0,0,1.73-3.37l-.08-2.14,1-1.85A3.86,3.86,0,0,0,567.5,523.09Z" transform="translate(-422.54 -392.8)"/><path class="cls-14" d="M556.61,545.65l-2.88-2.73a.45.45,0,0,0-.63,0l-3,2.78a.47.47,0,0,1-.53.07.56.56,0,0,1-.27-.49V538a.61.61,0,0,1,.12-.4.5.5,0,0,1,.36-.16h7.18a.51.51,0,0,1,.49.53v7.25a.55.55,0,0,1-.3.48A.44.44,0,0,1,556.61,545.65Z" transform="translate(-422.54 -392.8)"/><path class="cls-13" d="M553.75,540.81a4.59,4.59,0,1,0-4.48-4.59A4.54,4.54,0,0,0,553.75,540.81Z" transform="translate(-422.54 -392.8)"/><path class="cls-15" d="M569.14,521.42l-1.33-2.36-.1-2.73a3.82,3.82,0,0,0-2-3.22l-1.85-1-1-1.84a3.68,3.68,0,0,0-3.21-1.9H557L554.6,507a3.64,3.64,0,0,0-3.7.14l-1.78,1.15H547a3.67,3.67,0,0,0-3.2,1.9l-1.34,2.37-2.27,1.45a3.81,3.81,0,0,0-1.72,3.36l.08,2.14-1.05,1.84a3.89,3.89,0,0,0,0,3.8l1.34,2.36.07,2.75a3.79,3.79,0,0,0,2,3.21l1.86,1,1,1.84a3.71,3.71,0,0,0,3.21,1.9h2.67l2.35,1.28a3.64,3.64,0,0,0,3.7-.14l1.78-1.14h2.09a3.69,3.69,0,0,0,3.22-1.9l1.33-2.37,2.26-1.45a3.82,3.82,0,0,0,1.73-3.35l0-2.13,1-1.85A3.87,3.87,0,0,0,569.14,521.42Z" transform="translate(-422.54 -392.8)"/><path class="cls-16" d="M567.19,515.46a3.81,3.81,0,0,0-2-3.22l-1.87-1-1.06-1.84a3.73,3.73,0,0,0-3.24-1.9h-2.69L554,506.21a3.69,3.69,0,0,0-3.73.14l-1.79,1.14h-2.12a3.73,3.73,0,0,0-3.23,1.88l-1.35,2.37-2.28,1.45a3.77,3.77,0,0,0-1.75,3.36l.07,2.14-1.06,1.85a3.82,3.82,0,0,0,0,3.79l1.35,2.39.1,2.73a3.77,3.77,0,0,0,2,3.21l1.87,1,1.06,1.84a3.71,3.71,0,0,0,3.24,1.9H549l2.38,1.28a3.67,3.67,0,0,0,3.76-.13" transform="translate(-422.54 -392.8)"/><path class="cls-13" d="M567.82,519.19l-.09-2.71a3.8,3.8,0,0,0-1.94-3.2l-1.82-1-1-1.84a3.64,3.64,0,0,0-3.16-1.88h-2.63l-.54-.3c.08,1.13.1,2.27.07,3.4a5.8,5.8,0,0,0,1.18,3.89,14.26,14.26,0,0,0,1.58,1.31,6.14,6.14,0,0,1,2.05,5.29c-.2,1.76-1.15,3.39-1.21,5.16s.89,3.63.94,5.5a5.65,5.65,0,0,1-.9,3.25c-.5.79-1.19,1.44-1.66,2.24h1.12a3.63,3.63,0,0,0,3.16-1.89l1.32-2.35,2.22-1.44a3.83,3.83,0,0,0,1.72-3.34l-.07-2.13,1-1.83a3.91,3.91,0,0,0,0-3.78Z" transform="translate(-422.54 -392.8)"/><path class="cls-13" d="M553.34,535.81c6.3,0,11.41-.75,11.41-1.67s-5.11-1.67-11.41-1.67-11.42.75-11.42,1.67S547,535.81,553.34,535.81Z" transform="translate(-422.54 -392.8)"/><path class="cls-14" d="M569,523.87a1.73,1.73,0,0,1-1.29.58h-27a1.75,1.75,0,0,1-1.29-.58,1.76,1.76,0,0,0-1.37-.58,1.74,1.74,0,0,0-1.31.68l-.09.13a1.68,1.68,0,0,0-.3,1.48l1.61,6a2.41,2.41,0,0,0,2.32,1.76h27.88a2.39,2.39,0,0,0,2.32-1.76l1.62-6a1.68,1.68,0,0,0-.3-1.48l-.09-.13a1.74,1.74,0,0,0-1.32-.68A1.78,1.78,0,0,0,569,523.87Z" transform="translate(-422.54 -392.8)"/><path class="cls-17" d="M538.54,523.87a1.75,1.75,0,0,0-2.69.1l-.09.13a1.64,1.64,0,0,0-.29,1.48l1.61,6a2.4,2.4,0,0,0,2.33,1.76h27.9a2.39,2.39,0,0,0,2.33-1.76m-29.34-7.41h9.77m9.79,9.17h-5.71M550.07,535h1.64m5.71,6.68v2.5m-13.86-30.87,5.71-3.34" transform="translate(-422.54 -392.8)"/><circle class="cls-9" cx="132.43" cy="60.96" r="36.29"/><path class="cls-18" d="M574.42,448.71A3.4,3.4,0,0,0,571,445.3h-.18l.17-.06a3.4,3.4,0,0,0-2.52-6.32,3.39,3.39,0,0,0-4.86-4.74l-.12.12.07-.15a3.4,3.4,0,0,0-6.25-2.69,3.4,3.4,0,0,0-6.8.06v.18c0-.05,0-.11-.07-.17a3.41,3.41,0,0,0-5.38-1.27,2.89,2.89,0,0,0-.35.35,3.43,3.43,0,0,0-.6,3.47,3.41,3.41,0,0,0-3.42-.78,2.3,2.3,0,0,0-.43.18,3.42,3.42,0,0,0-.91,5.46l.13.12-.16-.08a3.4,3.4,0,0,0-2.69,6.25,3.41,3.41,0,0,0,.07,6.81h.18l-.17.06a3.4,3.4,0,0,0,1.35,6.48,3.44,3.44,0,0,0,1.23-.23,3.41,3.41,0,0,0,.93,5.41,3.41,3.41,0,0,0,3.92-.65l.12-.13a1.19,1.19,0,0,0-.08.16,3.42,3.42,0,0,0,.41,3.34,3.2,3.2,0,0,0,.5.54L541,475.74a.6.6,0,0,0,.69.84l4.47-1.23a.59.59,0,0,1,.7.33l2,4.38a.6.6,0,0,0,1.08,0l3.93-8.22,3.86,8.25a.6.6,0,0,0,.54.34.58.58,0,0,0,.54-.34l2-4.37a.61.61,0,0,1,.7-.32l4.46,1.26a.6.6,0,0,0,.62-.19.62.62,0,0,0,.08-.64l-4.1-8.73.1-.08a2.73,2.73,0,0,0,.34-.34,2.42,2.42,0,1,1,4-2.67,3.25,3.25,0,0,0,.43-.18,3.42,3.42,0,0,0,.91-5.46l-.13-.12.16.08a3.4,3.4,0,0,0,4.45-1.85h0a3.4,3.4,0,0,0-1.75-4.38,3.41,3.41,0,0,0,3.32-3.39Z" transform="translate(-422.54 -392.8)"/><path class="cls-6" d="M567.56,476.12l-4.4-1.26a.6.6,0,0,0-.69.32l-2,4.36a.59.59,0,0,1-1.07,0l-5.48-11.78a.6.6,0,0,1,.29-.79l7.81-3.71a.58.58,0,0,1,.45,0,.59.59,0,0,1,.33.31l5.46,11.74a.6.6,0,0,1-.08.64.59.59,0,0,1-.61.19Z" transform="translate(-422.54 -392.8)"/><path class="cls-6" d="M543.48,476.07l4.4-1.22a.58.58,0,0,1,.68.32l2,4.37a.57.57,0,0,0,.53.34.59.59,0,0,0,.53-.34l5.53-11.73a.59.59,0,0,0-.27-.79l-7.74-3.76a.6.6,0,0,0-.79.28l-5.53,11.7a.6.6,0,0,0,.08.64A.58.58,0,0,0,543.48,476.07Z" transform="translate(-422.54 -392.8)"/><path class="cls-13" d="M556.84,467.16l-1.39-.62a4.22,4.22,0,0,1-1.53,3.49c-.82.69-1.87,1.07-2.73,1.72a10.13,10.13,0,0,0-1.93,2.05,5.28,5.28,0,0,0-.79,1.25,3.1,3.1,0,0,0-.17.79l1.8,3.7a.63.63,0,0,0,.57.34.61.61,0,0,0,.56-.34l5.9-11.6a.57.57,0,0,0-.29-.78Zm6.3-3.61a.55.55,0,0,0-.57-.34,7.75,7.75,0,0,0,0,1.18,29.27,29.27,0,0,1-.24,4.77,5.78,5.78,0,0,0,0,2.23c.37,1.43,1.78,2.19,2.9,3.08a8,8,0,0,1,1.14,1.12l1.28.38a.55.55,0,0,0,.57-.19.6.6,0,0,0,.07-.63Z" transform="translate(-422.54 -392.8)"/><path class="cls-13" d="M561.07,458.24a4.32,4.32,0,0,0-3.26,1.49,4.12,4.12,0,0,0-3.59-.18,4.34,4.34,0,0,0-3.1-1.35,4.78,4.78,0,0,0,0,9.54,4.34,4.34,0,0,0,1.63-.32,4.28,4.28,0,0,0,6.35-.14,4.2,4.2,0,0,0,2,.49,4.77,4.77,0,0,0,0-9.53Z" transform="translate(-422.54 -392.8)"/><path class="cls-3" d="M576.64,447.71a3.41,3.41,0,0,0-3.4-3.43h-.17l.16-.06a3.41,3.41,0,0,0-2.52-6.34,3.43,3.43,0,0,0,.89-3,3.39,3.39,0,0,0-1.84-2.48,3,3,0,0,0-.45-.18,3.42,3.42,0,0,0-3.48.83.69.69,0,0,0-.11.13c0-.06,0-.1.07-.16a3.41,3.41,0,1,0-6.27-2.7,3.41,3.41,0,0,0-6.82.06v.19l-.06-.17a3.43,3.43,0,0,0-5.4-1.28,2.32,2.32,0,0,0-.35.35,3.44,3.44,0,0,0-.6,3.47,3.41,3.41,0,0,0-4.78,4.87l.14.12-.16-.07a3.42,3.42,0,0,0-2.7,6.28,3.42,3.42,0,0,0,.07,6.83H539l-.16.06a3.42,3.42,0,0,0-1.85,4.46h0a3.38,3.38,0,0,0,4.36,1.88,3.44,3.44,0,0,0,1,5.44,3,3,0,0,0,.45.18,3.42,3.42,0,0,0,3.48-.83l.12-.14-.08.17a3.42,3.42,0,0,0,.42,3.35,3,3,0,0,0,.66.68,3.42,3.42,0,0,0,5.19-1.33,3.41,3.41,0,0,0,6.81-.07v-.18a.87.87,0,0,0,.07.17,3.39,3.39,0,0,0,3.13,2.11,3.47,3.47,0,0,0,2.26-.84,2.81,2.81,0,0,0,.35-.34,2.43,2.43,0,1,1,4-2.69,1.78,1.78,0,0,0,.43-.18,3.42,3.42,0,0,0,.91-5.48l-.13-.12.16.08a3.41,3.41,0,0,0,4.46-1.85h0a3.4,3.4,0,0,0-1.76-4.42,3.41,3.41,0,0,0,3.35-3.41Z" transform="translate(-422.54 -392.8)"/><path class="cls-19" d="M575.53,447.83a3.43,3.43,0,0,0-3.41-3.45h-.19l.17-.07a3.43,3.43,0,0,0-2.53-6.38,3.44,3.44,0,0,0-1-5.46,3.38,3.38,0,0,0-.44-.18,3.45,3.45,0,0,0-3.5.83l-.12.13.07-.15a3.43,3.43,0,1,0-6.3-2.72,3.43,3.43,0,0,0-6.85.07v.17l-.06-.16a3.43,3.43,0,0,0-5.43-1.29,3.85,3.85,0,0,0-.35.35A3.44,3.44,0,0,0,545,433a3.45,3.45,0,0,0-3.45-.79,3.38,3.38,0,0,0-.44.18,3.46,3.46,0,0,0-.91,5.52l.13.12-.16-.08a3.44,3.44,0,0,0-2.71,6.32,3.44,3.44,0,0,0,.12,6.85h.18l-.17.06a3.44,3.44,0,0,0-1.86,4.49h0a3.41,3.41,0,0,0,4.39,1.89,3.45,3.45,0,0,0,1,5.45,2.44,2.44,0,0,0,.44.19" transform="translate(-422.54 -392.8)"/><circle class="cls-20" cx="133.26" cy="55.68" r="15.84"/><path class="cls-21" d="M541.07,442.64a15.27,15.27,0,0,1,9.76-9.81A15,15,0,0,1,564.42,435" transform="translate(-422.54 -392.8)"/><path class="cls-22" d="M576.64,448.07a3.45,3.45,0,0,0-3.45-3.45H573l.17-.06a3.43,3.43,0,0,0,1.83-4.42,3.47,3.47,0,0,0-4.39-2,3.46,3.46,0,0,0-1-5.48l-.45-.18a3.5,3.5,0,0,0-3.54.84.74.74,0,0,0-.12.13l.07-.16a3.34,3.34,0,0,0,.23-1.79,7.15,7.15,0,0,0-1.47,2.55,21,21,0,0,0-.48,3,13.4,13.4,0,0,1-2.22,5.7c-1.89,2.77-4.83,4.87-6,8-1,2.58-.67,5.46-.64,8.24a36.25,36.25,0,0,1-1.12,9.27,3.5,3.5,0,0,0,3.5.08,3.44,3.44,0,0,0,1.77-3v-.18c0,.05,0,.11.07.17a3.47,3.47,0,0,0,3.18,2.13,3.51,3.51,0,0,0,2.3-.85,1.93,1.93,0,0,0,.35-.35,3.42,3.42,0,0,0,.61-3.49,3.52,3.52,0,0,0,3.49.79,3.38,3.38,0,0,0,.44-.18,3.45,3.45,0,0,0,.93-5.52l-.14-.12.16.07a3.47,3.47,0,0,0,4.53-1.86h0a3.43,3.43,0,0,0-1.79-4.46,3.45,3.45,0,0,0,3.38-3.41Z" transform="translate(-422.54 -392.8)"/><circle class="Graphic-Style-2" cx="27.82" cy="115.55" r="23.04"/><circle class="cls-9" cx="27.82" cy="111.32" r="23.04"/><path class="cls-18" d="M462.71,500.92a2.16,2.16,0,0,0-2.15-2.17h-.11l.1,0a4.79,4.79,0,0,1-1-5.87,2.17,2.17,0,0,0-1.16-1.56,1.39,1.39,0,0,0-.28-.12,2.18,2.18,0,0,0-2.21.53l-.07.08,0-.1a10.36,10.36,0,0,1-6.15-3.78,2.16,2.16,0,0,0-2.14,2.11v.12a.76.76,0,0,1,0-.11,2.17,2.17,0,0,0-3.42-.81,2.28,2.28,0,0,0-.22.22,1.54,1.54,0,1,1-2.55,1.71,1.39,1.39,0,0,0-.28.12,2.17,2.17,0,0,0-.58,3.46l.09.08-.1-.05a10,10,0,0,1-3.85,6.15,2.16,2.16,0,0,0,2.18,2.14h.11l-.1,0a2.16,2.16,0,0,0,.86,4.11,2.23,2.23,0,0,0,.77-.14,2.17,2.17,0,0,0,.6,3.43,1.39,1.39,0,0,0,.28.12,2.16,2.16,0,0,0,2.2-.53l.08-.09-.05.11a2.18,2.18,0,0,0,.26,2.12,1.72,1.72,0,0,0,.32.34l-2.65,5.54a.41.41,0,0,0,.05.41.39.39,0,0,0,.39.12l2.84-.78a.37.37,0,0,1,.44.21l1.28,2.78a.38.38,0,0,0,.68,0l2.5-5.22,2.45,5.24a.38.38,0,0,0,.69,0l1.29-2.78a.38.38,0,0,1,.44-.2l2.84.8a.39.39,0,0,0,.39-.12.4.4,0,0,0,.05-.41l-2.6-5.54.06-.05a1.52,1.52,0,0,0,.22-.22,1.53,1.53,0,1,1,2.55-1.69,1.31,1.31,0,0,0,.27-.12,2.16,2.16,0,0,0,.58-3.46l-.08-.08.1,0a2.16,2.16,0,0,0,2.82-1.17h0a2.75,2.75,0,0,1,1-4.93Z" transform="translate(-422.54 -392.8)"/><path class="cls-6" d="M458.36,518.32l-2.8-.8a.37.37,0,0,0-.43.2l-1.28,2.77a.38.38,0,0,1-.34.21.37.37,0,0,1-.34-.21L449.69,513a.37.37,0,0,1,.18-.5l5-2.36a.41.41,0,0,1,.29,0,.41.41,0,0,1,.21.2l3.46,7.45a.37.37,0,0,1-.43.53Z" transform="translate(-422.54 -392.8)"/><path class="cls-6" d="M443.07,518.29l2.79-.78a.36.36,0,0,1,.43.2l1.26,2.78a.36.36,0,0,0,.33.21.37.37,0,0,0,.34-.21l3.52-7.45a.38.38,0,0,0-.18-.5l-4.91-2.38a.38.38,0,0,0-.5.17l-3.52,7.43a.39.39,0,0,0,.44.53Z" transform="translate(-422.54 -392.8)"/><path class="cls-13" d="M451.55,512.63l-.88-.39a2.69,2.69,0,0,1-1,2.21c-.52.44-1.19.68-1.74,1.09a6.31,6.31,0,0,0-1.22,1.31,3.11,3.11,0,0,0-.5.79,1.72,1.72,0,0,0-.11.5l1.14,2.35a.41.41,0,0,0,.72,0l3.75-7.37a.37.37,0,0,0-.19-.49Zm4-2.29a.34.34,0,0,0-.36-.22,4.7,4.7,0,0,0,0,.75,18.11,18.11,0,0,1-.16,3,3.72,3.72,0,0,0,0,1.41c.23.92,1.13,1.4,1.84,2a5.44,5.44,0,0,1,.73.71l.81.24a.34.34,0,0,0,.36-.12.41.41,0,0,0,.05-.4Z" transform="translate(-422.54 -392.8)"/><path class="cls-13" d="M454.23,507a2.72,2.72,0,0,0-2.06.94,2.65,2.65,0,0,0-2.28-.11,2.79,2.79,0,0,0-2-.86,3,3,0,0,0,0,6.06,2.6,2.6,0,0,0,1-.21,2.76,2.76,0,0,0,2,.86,2.7,2.7,0,0,0,2-.95,2.64,2.64,0,0,0,1.25.32,3,3,0,0,0,0-6Z" transform="translate(-422.54 -392.8)"/><path class="cls-3" d="M464.12,500.28A2.17,2.17,0,0,0,462,498.1h-.11l.11,0a2.16,2.16,0,0,0-1.6-4,2.2,2.2,0,0,0-.61-3.46l-.28-.11a2.18,2.18,0,0,0-2.21.53l-.08.08.05-.1a10.31,10.31,0,0,1-6.16-3.8,2.18,2.18,0,0,0-2.15,2.13v.11a.76.76,0,0,0,0-.11,2.17,2.17,0,0,0-3.42-.81,1.61,1.61,0,0,0-.23.22,2.19,2.19,0,0,0-.38,2.21,2.15,2.15,0,0,0-2.17-.5l-.28.11a2.18,2.18,0,0,0-.58,3.48.6.6,0,0,1,.08.08l-.1-.05a10.44,10.44,0,0,1-3.79,6.18,2.16,2.16,0,0,0,2.12,2.14h.12l-.11,0a2.18,2.18,0,0,0-1.18,2.84h0a2.2,2.2,0,0,0,2,1.34,2,2,0,0,0,.78-.15,2.2,2.2,0,0,0-.56,1.88,2.17,2.17,0,0,0,1.17,1.57,1,1,0,0,0,.28.11,2.15,2.15,0,0,0,2.21-.52l.08-.09a.54.54,0,0,0-.05.11,2.2,2.2,0,0,0,.26,2.13,2,2,0,0,0,.43.43,3.3,3.3,0,0,1,5.47,1.23,2.16,2.16,0,0,0,2.14-2.12v-.12a.76.76,0,0,1,0,.11,2.16,2.16,0,0,0,2,1.34,2.22,2.22,0,0,0,1.44-.53,1.52,1.52,0,0,0,.22-.22,2.18,2.18,0,0,0,.38-2.2,2.21,2.21,0,0,0,2.18.5,1.31,1.31,0,0,0,.27-.12,2.18,2.18,0,0,0,.58-3.48l-.08-.07.1.05a2.16,2.16,0,0,0,2.83-1.18h0a2.77,2.77,0,0,1,1-5Z" transform="translate(-422.54 -392.8)"/><path class="cls-19" d="M463.42,500.36a2.18,2.18,0,0,0-2.17-2.19h-.12l.11,0a4.84,4.84,0,0,1-1-5.94,2.16,2.16,0,0,0-1.18-1.58,1.39,1.39,0,0,0-.28-.12,2.17,2.17,0,0,0-2.22.53l-.08.08a.31.31,0,0,0,.05-.1,10.45,10.45,0,0,1-6.2-3.82,2.18,2.18,0,0,0-2.15,2.14v.11a.42.42,0,0,0,0-.1,2.18,2.18,0,0,0-1.51-1.29,2.15,2.15,0,0,0-1.93.47,2.39,2.39,0,0,0-.23.22,2.22,2.22,0,0,0-.38,2.22,2.18,2.18,0,0,0-2.19-.5l-.28.11a2.19,2.19,0,0,0-.58,3.5l.09.08-.11-.05a2.16,2.16,0,0,0-2.16.26,2.19,2.19,0,0,0-.86,2,2.05,2.05,0,0,1-.65,4,2.17,2.17,0,0,0,2,2.14h.12l-.11,0a2.19,2.19,0,0,0-1.18,2.85h0a2.18,2.18,0,0,0,2,1.35,2.08,2.08,0,0,0,.78-.15,2.21,2.21,0,0,0-.56,1.89,2.17,2.17,0,0,0,1.17,1.57,1.69,1.69,0,0,0,.28.12" transform="translate(-422.54 -392.8)"/><circle class="cls-20" cx="28.35" cy="107.97" r="10.06"/><path class="cls-21" d="M441.54,497.06a9.71,9.71,0,0,1,6.19-6.23,9.55,9.55,0,0,1,8.63,1.39" transform="translate(-422.54 -392.8)"/><path class="cls-22" d="M464.12,500.51a2.2,2.2,0,0,0-2.19-2.19h-.12l.11,0a2.17,2.17,0,0,0,1.16-2.81,2.21,2.21,0,0,0-2.78-1.25,2.18,2.18,0,0,0-.62-3.47,1.48,1.48,0,0,0-.29-.12,2.21,2.21,0,0,0-2.24.53.6.6,0,0,1-.08.08l.05-.1a2.09,2.09,0,0,0,.14-1.13,4.45,4.45,0,0,0-.93,1.62,11.69,11.69,0,0,0-.3,1.88,8.66,8.66,0,0,1-1.41,3.62c-1.21,1.75-3.07,3.09-3.85,5.07-.64,1.64-.42,3.47-.4,5.23a22.89,22.89,0,0,1-.71,5.89,2.2,2.2,0,0,0,3.35-1.85v-.12a.36.36,0,0,0,0,.11,2.18,2.18,0,0,0,2,1.35,2.3,2.3,0,0,0,1.46-.53,2.39,2.39,0,0,0,.22-.23,2.19,2.19,0,0,0,.39-2.22,2.22,2.22,0,0,0,2.21.51,1.39,1.39,0,0,0,.28-.12,2.22,2.22,0,0,0,1.2-1.6,2.19,2.19,0,0,0-.61-1.9l-.09-.08.11.05a2.2,2.2,0,0,0,2.87-1.18h0a2.78,2.78,0,0,1,1-5Z" transform="translate(-422.54 -392.8)"/><circle class="Graphic-Style-2" cx="73.31" cy="31.56" r="26.79"/><circle class="cls-23" cx="73.31" cy="26.79" r="26.79"/><path class="cls-18" d="M511.28,428.68V414.75a3.56,3.56,0,0,0-1.76-3.09l-11.9-7a3.47,3.47,0,0,0-3.52,0l-11.9,7a3.57,3.57,0,0,0-1.77,3.09v13.93a3.59,3.59,0,0,0,1.77,3.09l11.89,6.94a3.51,3.51,0,0,0,3.52,0l11.9-7A3.56,3.56,0,0,0,511.28,428.68Z" transform="translate(-422.54 -392.8)"/><path class="cls-3" d="M511.8,427.64V413.73a3.57,3.57,0,0,0-1.77-3.09l-11.89-7a3.51,3.51,0,0,0-3.52,0l-11.91,7a3.58,3.58,0,0,0-1.76,3.09v13.91a3.56,3.56,0,0,0,1.76,3.09l11.91,7a3.47,3.47,0,0,0,3.52,0l11.9-7A3.58,3.58,0,0,0,511.8,427.64Z" transform="translate(-422.54 -392.8)"/><path class="cls-24" d="M511.28,413.1a3.54,3.54,0,0,0-1.76-3.06l-11.9-6.88a3.51,3.51,0,0,0-3.52,0L482.2,410a3.52,3.52,0,0,0-1.77,3.06v13.78a3.52,3.52,0,0,0,1.77,3.06" transform="translate(-422.54 -392.8)"/><polygon class="cls-1" points="83.69 30.39 85.14 27.89 83.69 25.38 83.69 22.49 81.19 21.05 79.74 18.54 76.85 18.54 74.34 17.09 71.83 18.54 68.94 18.54 67.5 21.05 64.99 22.49 64.99 25.38 63.55 27.89 64.99 30.39 64.99 33.29 67.5 34.73 68.94 37.24 71.83 37.24 74.34 38.69 76.85 37.24 79.74 37.24 81.19 34.73 83.69 33.29 83.69 30.39"/><polyline class="cls-25" points="83.08 21.95 80.59 20.51 79.15 18.02 76.27 18.02 73.78 16.58 71.28 18.02 68.41 18.02 66.97 20.51 64.47 21.95 64.47 24.83 63.03 27.32 64.47 29.82 64.47 32.7 66.97 34.14 68.41 36.63 71.28 36.63"/><circle class="cls-14" cx="74.34" cy="27.38" r="4.11"/><path class="cls-25" d="M494.81,423.77a4,4,0,0,1,1.12-6.94,4.1,4.1,0,0,1,4,.68" transform="translate(-422.54 -392.8)"/><path class="cls-13" d="M511,410.62l-12.26-7a3.52,3.52,0,0,0-1.37-.45,6.85,6.85,0,0,0-.56,1.69,12.72,12.72,0,0,0,.6,6,49.69,49.69,0,0,1,1.65,5.84,14.69,14.69,0,0,1-.94,8.1c-1.41,3.33-4,6.13-5,9.61a10.53,10.53,0,0,0-.36,1.94l2.31,1.32a3.69,3.69,0,0,0,3.64,0l12.28-7a3.51,3.51,0,0,0,1.82-3.09V413.72A3.53,3.53,0,0,0,511,410.62Z" transform="translate(-422.54 -392.8)"/><path class="cls-24" d="M498.43,436.11l11.31-6.68" transform="translate(-422.54 -392.8)"/><circle class="Graphic-Style-2" cx="36.29" cy="69.14" r="36.29"/><circle class="cls-3" cx="36.29" cy="63.02" r="36.29"/><path class="cls-4" d="M457.3,479.29a4.42,4.42,0,0,1-2.77-1l-13.8-11.41a4.21,4.21,0,0,1-1.55-3.24V439.3a1.82,1.82,0,0,1,1.26-1.72,54.1,54.1,0,0,1,33.71,0,1.81,1.81,0,0,1,1.26,1.72v24.34a4.19,4.19,0,0,1-1.53,3.24l-13.8,11.42a4.4,4.4,0,0,1-2.78,1Z" transform="translate(-422.54 -392.8)"/><polygon class="cls-5" points="37.24 69.14 31.44 65.57 37.15 73.73 43.17 65.78 37.24 69.14"/><polygon class="cls-5" points="31.45 63.66 31.48 63.66 37.3 67.1 43.14 63.87 43.17 63.88 43.15 63.87 43.17 63.85 37.54 53.83 31.44 63.64 31.47 63.65 31.45 63.66"/><path class="cls-6" d="M476.12,438.64h0a52.93,52.93,0,0,0-33.56,0h0a3.45,3.45,0,0,0-2.36,3.28v23.89a5.83,5.83,0,0,0,2.08,4.47l13.32,11.21a5.81,5.81,0,0,0,7.48,0l13.32-11.21a5.83,5.83,0,0,0,2.08-4.47v-23.9a3.48,3.48,0,0,0-2.36-3.27Zm.69,27.17a4.18,4.18,0,0,1-1.49,3.19L462,480.21a4.14,4.14,0,0,1-5.34,0L443.35,469a4.17,4.17,0,0,1-1.48-3.19v-23.9a1.77,1.77,0,0,1,1.22-1.69,51.16,51.16,0,0,1,32.49,0,1.77,1.77,0,0,1,1.22,1.69Z" transform="translate(-422.54 -392.8)"/><path class="cls-7" d="M478,465.62V441.81a3.45,3.45,0,0,0-2.31-3.27h0a50.73,50.73,0,0,0-13.46-2.63,19,19,0,0,1,3,7.1,55.38,55.38,0,0,1,.91,9.36,21.9,21.9,0,0,1-.21,5.06c-.8,4-3.81,7.2-5.24,11a19.07,19.07,0,0,0-.7,9.89,32.37,32.37,0,0,0,1,4,5.83,5.83,0,0,0,2-1.12l13-11.17A5.9,5.9,0,0,0,478,465.62Z" transform="translate(-422.54 -392.8)"/><path class="cls-8" d="M446.78,463l-8.9-2.38a1.27,1.27,0,0,1-.89-.36,1.22,1.22,0,0,1-.36-.86l0-4.38a1.23,1.23,0,0,1,1.25-1.21l8.91,2.38a.53.53,0,0,1,.48.32.5.5,0,0,1-.09.56L444,458a.5.5,0,0,0,0,.7l3.18,3.36a.52.52,0,0,1,.09.57A.53.53,0,0,1,446.78,463Zm25.12-6.86,8.9-2.33a1.25,1.25,0,0,1,1.25,1.23l0,4.41a1.19,1.19,0,0,1-.37.86,1.29,1.29,0,0,1-.89.36L471.87,463a.54.54,0,0,1-.49-.32.51.51,0,0,1,.1-.57l3.2-3.36a.51.51,0,0,0,0-.71l-3.17-1a.5.5,0,0,1-.1-.57.54.54,0,0,1,.49-.31Z" transform="translate(-422.54 -392.8)"/><path class="cls-9" d="M446.78,460.91l-8.9,0a1.27,1.27,0,0,1-.89-.36,1.2,1.2,0,0,1-.36-.86l0-6.72a1.23,1.23,0,0,1,1.25-1.21l8.9,0a.53.53,0,0,1,.49.32.49.49,0,0,1-.1.56L444,456a.5.5,0,0,0,0,.7l3.18,3.38a.51.51,0,0,1,.08.55A.55.55,0,0,1,446.78,460.91Zm25.12-9.18,8.9,0a1.24,1.24,0,0,1,1.25,1.22l0,6.72a1.16,1.16,0,0,1-.37.86,1.24,1.24,0,0,1-.89.35l-8.89,0a.53.53,0,0,1-.49-.31.51.51,0,0,1,.1-.57l3.2-3.34a.5.5,0,0,0,0-.7l-3.18-3.36a.53.53,0,0,1-.09-.56.54.54,0,0,1,.49-.31Z" transform="translate(-422.54 -392.8)"/><path class="cls-10" d="M443.51,457.6,446.7,461a.53.53,0,0,1-.4.89l-8.93,0a1.25,1.25,0,0,1-1.25-1.25l0-6.88M480,461.93l-8.67,0a.54.54,0,0,1-.48-.33.55.55,0,0,1,.1-.58l3.11-3.48a.57.57,0,0,0,0-.74L471,453.26" transform="translate(-422.54 -392.8)"/><path class="cls-11" d="M445.31,468.06,457,478.26" transform="translate(-422.54 -392.8)"/><circle class="Graphic-Style-2" cx="63.49" cy="146.69" r="44.22"/><circle class="cls-23" cx="63.49" cy="138.81" r="44.22"/><path class="cls-18" d="M511.5,546.61v-23a5.89,5.89,0,0,0-2.91-5.1l-19.65-11.47a5.73,5.73,0,0,0-5.8,0l-19.65,11.48a5.91,5.91,0,0,0-2.91,5.11v23a5.91,5.91,0,0,0,2.91,5.11l19.63,11.45a5.75,5.75,0,0,0,5.81,0l19.64-11.48A5.9,5.9,0,0,0,511.5,546.61Z" transform="translate(-422.54 -392.8)"/><path class="cls-3" d="M512.35,544.9v-23a5.9,5.9,0,0,0-2.92-5.11L489.8,505.35a5.75,5.75,0,0,0-5.81,0l-19.65,11.48a5.87,5.87,0,0,0-2.91,5.11v23a5.86,5.86,0,0,0,2.91,5.1L484,561.48a5.75,5.75,0,0,0,5.81,0L509.46,550A5.92,5.92,0,0,0,512.35,544.9Z" transform="translate(-422.54 -392.8)"/><path class="cls-24" d="M511.5,520.9a5.81,5.81,0,0,0-2.92-5l-19.64-11.36a5.8,5.8,0,0,0-5.81,0l-19.64,11.36a5.84,5.84,0,0,0-2.91,5v22.74a5.82,5.82,0,0,0,2.91,5.05" transform="translate(-422.54 -392.8)"/><polygon class="cls-1" points="80.63 144.75 83.01 140.62 80.63 136.48 80.63 131.71 76.49 129.32 74.1 125.18 69.32 125.18 65.19 122.8 61.05 125.18 56.28 125.18 53.89 129.32 49.76 131.71 49.76 136.48 47.37 140.62 49.76 144.75 49.76 149.53 53.89 151.92 56.28 156.05 61.05 156.05 65.19 158.44 69.32 156.05 74.1 156.05 76.49 151.92 80.63 149.53 80.63 144.75"/><polyline class="cls-25" points="79.62 130.82 75.5 128.44 73.13 124.33 68.38 124.33 64.26 121.95 60.15 124.33 55.39 124.33 53.01 128.44 48.9 130.82 48.9 135.57 46.52 139.69 48.9 143.8 48.9 148.56 53.01 150.93 55.39 155.05 60.15 155.05"/><circle class="cls-14" cx="65.19" cy="139.77" r="6.79"/><path class="cls-25" d="M484.3,538.51a6.66,6.66,0,0,1,1.86-11.46,6.77,6.77,0,0,1,6.67,1.13" transform="translate(-422.54 -392.8)"/><path class="cls-13" d="M511.06,516.8l-20.25-11.49a6.08,6.08,0,0,0-2.27-.75,11.94,11.94,0,0,0-.92,2.8c-.62,3.28.05,6.67,1,9.87a84.19,84.19,0,0,1,2.73,9.63,24.23,24.23,0,0,1-1.55,13.38c-2.32,5.5-6.61,10.12-8.25,15.86a16.65,16.65,0,0,0-.59,3.21l3.81,2.17a6.11,6.11,0,0,0,6,0L511,550a5.87,5.87,0,0,0,3-5.12v-23A5.87,5.87,0,0,0,511.06,516.8Z" transform="translate(-422.54 -392.8)"/><path class="cls-24" d="M490.28,558.88l18.67-11" transform="translate(-422.54 -392.8)"/><circle class="Graphic-Style-2" cx="96.22" cy="79.66" r="50.48"/><circle class="cls-26" cx="96.22" cy="71.89" r="50.48"/><path id="Fill-1" class="cls-23" d="M537,482l3.25,7.66c1.23,2.91,2.44,5.82,3.68,8.72a2.4,2.4,0,0,1-.25,2.79,2.31,2.31,0,0,1-2.69.5c-2.39-.85-4.8-1.65-7.19-2.52-.58-.21-.82-.06-1.07.48-1.1,2.4-2.23,4.78-3.36,7.16a2.12,2.12,0,0,1-2.28,1.22,2,2,0,0,1-1.82-1.38l-5.31-12.67c-.08-.19-.18-.38-.33-.68-.61,1.44-1.19,2.78-1.75,4.13-1.28,3.06-2.55,6.13-3.84,9.19a2.1,2.1,0,0,1-2.09,1.42,2.13,2.13,0,0,1-2.1-1.4c-1.12-2.38-2.26-4.75-3.38-7.14-.21-.44-.42-.51-.88-.35-2.53.9-5.06,1.76-7.6,2.62a2.1,2.1,0,0,1-2.36-.55,2.18,2.18,0,0,1-.41-2.45q3.1-7.38,6.19-14.77c.1-.24.24-.46.36-.69a1.67,1.67,0,0,1,.82.59q-1.53,3.71-3.07,7.43c-1.05,2.54-2.13,5.07-3.19,7.61a1.33,1.33,0,0,0,.16,1.59c.43.44.93.31,1.45.13,2.64-.93,5.29-1.82,7.93-2.76.67-.25,1-.12,1.3.55,1.17,2.57,2.41,5.11,3.61,7.67a1.28,1.28,0,0,0,1.18.89,1.2,1.2,0,0,0,1.11-.87c1.89-4.5,3.76-9,5.67-13.52a1.67,1.67,0,0,0-.17-1.82.74.74,0,0,0-.28.44l-5.61,13.31c-.12.3-.16.72-.58.73s-.53-.43-.68-.73c-1.28-2.55-2.57-5.1-3.82-7.66-.23-.46-.44-.57-.92-.4-1.39.49-2.8.93-4.19,1.38l-4.27,1.36c-.24.08-.47.15-.66-.07a.54.54,0,0,1,0-.6l.21-.53q2.88-6.86,5.75-13.72a15.34,15.34,0,0,0,4.87.28,9,9,0,0,1,5.71,1.72,8.81,8.81,0,0,0,4.66,1.89q3.7,8.87,7.41,17.73c.23.56.5,1.06,1.17,1.08s1-.47,1.25-1c1.14-2.43,2.27-4.86,3.44-7.28.54-1.13.27-1.2,1.73-.7,2.55.89,5.11,1.76,7.66,2.66a1.26,1.26,0,0,0,1.5-.23,1.29,1.29,0,0,0,.08-1.52l-6.72-16a3.63,3.63,0,0,1,.75-.9" transform="translate(-422.54 -392.8)"/><g id="Group-5"><g class="cls-27"><path class="cls-23" d="M508.2,428.46c-1.15,0-1.94,0-2.72,0a4.26,4.26,0,0,0-3.46,1.82,24.19,24.19,0,0,0-1.71,3,9.11,9.11,0,0,1-4.11,4.1c-.81.41-1.58.87-2.37,1.32a4.47,4.47,0,0,0-2.39,4.23c0,1.21,0,2.42,0,3.64a7,7,0,0,1-1,3.73c-.54.92-1.08,1.84-1.65,2.75a4.92,4.92,0,0,0,0,5.63c.29.44.51.92.82,1.34a9.62,9.62,0,0,1,1.86,6.64c-.06.76,0,1.52,0,2.28a4.3,4.3,0,0,0,2,3.88,12.68,12.68,0,0,0,1.66,1,10.76,10.76,0,0,1,5.72,5.6,13.84,13.84,0,0,0,.86,1.55,4.49,4.49,0,0,0,4.18,2.36l3.78,0a7.1,7.1,0,0,1,3.73,1.05c.92.54,1.84,1.09,2.74,1.65a4.77,4.77,0,0,0,5.43,0c.69-.43,1.4-.82,2.07-1.26a8.31,8.31,0,0,1,5.11-1.47c1,.06,2,0,3.07,0a4.53,4.53,0,0,0,4.24-2.39c.44-.79.91-1.56,1.31-2.37a9,9,0,0,1,4.1-4.12c.82-.41,1.63-.88,2.42-1.35a4.3,4.3,0,0,0,2.31-3.39c.13-1.46,0-2.9,0-4.35a7.67,7.67,0,0,1,1.13-4.07c.55-.91,1.09-1.83,1.64-2.75a4.7,4.7,0,0,0,.08-5.13c-.45-.76-.89-1.52-1.37-2.25a8.46,8.46,0,0,1-1.48-5.18c.06-1.05,0-2.1,0-3.14a4.38,4.38,0,0,0-2-3.83,31.12,31.12,0,0,0-2.91-1.66,9,9,0,0,1-4-4c-.44-.87-.92-1.71-1.42-2.55a4.25,4.25,0,0,0-3.41-2.28c-.59-.06-1.19,0-1.78-.05a30.73,30.73,0,0,1-3.84-.07,9.18,9.18,0,0,1-4.17-1.92,6,6,0,0,0-7.84,0,8.85,8.85,0,0,1-6.72,2m-5.64,55.38a1.67,1.67,0,0,0-.82-.59,41.94,41.94,0,0,1-3.29-5.31,7.13,7.13,0,0,0-2.86-2.39,25.42,25.42,0,0,1-3.19-1.88,5.39,5.39,0,0,1-2.24-4.34,20,20,0,0,1,0-2.57,8.87,8.87,0,0,0-1.69-6.1,16.37,16.37,0,0,1-1.28-2.22,5.69,5.69,0,0,1,0-5.22,27.48,27.48,0,0,1,1.65-2.83,7.59,7.59,0,0,0,1.31-4.58c-.06-1,0-2,0-3.06a5.6,5.6,0,0,1,3-5.18c.75-.46,1.51-.9,2.3-1.29a8.17,8.17,0,0,0,3.86-3.84,15.39,15.39,0,0,1,2.07-3.4,5.36,5.36,0,0,1,4.08-1.87,20.85,20.85,0,0,1,2.5,0,8.93,8.93,0,0,0,6.22-1.76,17.55,17.55,0,0,1,2-1.14,5.72,5.72,0,0,1,5.46,0,28.18,28.18,0,0,1,2.7,1.6,7.69,7.69,0,0,0,4.65,1.31c1,0,2,0,3.06,0a5.58,5.58,0,0,1,5.15,3c.47.8.94,1.6,1.35,2.43a7.84,7.84,0,0,0,3.61,3.61,21.93,21.93,0,0,1,2.9,1.66,5.48,5.48,0,0,1,2.5,4.71,23,23,0,0,1,0,2.35,8.85,8.85,0,0,0,1.72,6.17,19.71,19.71,0,0,1,1.08,1.84,5.93,5.93,0,0,1-.16,6.17c-.59,1-1.19,2-1.78,3a6,6,0,0,0-.86,3.26c0,1.19,0,2.38,0,3.57a5.62,5.62,0,0,1-2.92,5.19c-.83.51-1.69,1-2.55,1.43a7.42,7.42,0,0,0-3.31,3.13c-.56,1.1-1.16,2.18-1.75,3.27a3.39,3.39,0,0,0-.74.9,2.9,2.9,0,0,0-.76.68,6.85,6.85,0,0,1-4.19,1c-1.06,0-2.13,0-3.2,0a5.26,5.26,0,0,0-2.14.44c-2.11.92-3.88,2.51-6.13,3.17a4.13,4.13,0,0,0-1.11,0,8.84,8.84,0,0,1-4.66-1.89,9,9,0,0,0-5.71-1.72,15.36,15.36,0,0,1-4.87-.28,1.9,1.9,0,0,0-.9-.41" transform="translate(-422.54 -392.8)"/></g></g><path id="Fill-12" class="cls-23" d="M535.47,483.54q2.64,6.3,5.27,12.6c.3.72.61,1.44.9,2.17.1.25.28.53,0,.8s-.52.1-.79,0c-2.75-.89-5.51-1.76-8.25-2.67-.55-.19-.77-.07-1,.44-1.25,2.56-2.54,5.1-3.82,7.65-.13.27-.22.59-.63.58s-.47-.35-.58-.61q-3.33-7.9-6.63-15.82a4.77,4.77,0,0,1-.15-.54c2.25-.66,4-2.25,6.13-3.17a5.26,5.26,0,0,1,2.14-.44c1.07,0,2.14,0,3.2,0a6.85,6.85,0,0,0,4.19-1" transform="translate(-422.54 -392.8)"/><path class="cls-1" d="M549,453.35c-.45-.75-.89-1.51-1.37-2.25a8.44,8.44,0,0,1-1.48-5.18c.06-1.05,0-2.1,0-3.14a4.38,4.38,0,0,0-2-3.83,31.12,31.12,0,0,0-2.91-1.66,9,9,0,0,1-4-4c-.44-.87-.92-1.71-1.42-2.55a4.25,4.25,0,0,0-3.41-2.28c-.59-.06-1.19,0-1.78-.05a32.77,32.77,0,0,1-3.84-.06,9.3,9.3,0,0,1-4.17-1.93,6,6,0,0,0-7.84,0,8.85,8.85,0,0,1-6.72,2c-1.15,0-1.94,0-2.72,0a4.23,4.23,0,0,0-3.46,1.81,24.19,24.19,0,0,0-1.71,3,9.11,9.11,0,0,1-4.11,4.1c-.81.41-1.58.87-2.37,1.32a4.5,4.5,0,0,0-2.4,4.23c0,1.21,0,2.43,0,3.64a7,7,0,0,1-1,3.73c-.54.92-1.09,1.84-1.65,2.75a4.9,4.9,0,0,0,0,5.63c.29.44.51.92.82,1.34a9.62,9.62,0,0,1,1.86,6.64,21.68,21.68,0,0,0,0,2.28,4.3,4.3,0,0,0,2,3.88,12.68,12.68,0,0,0,1.66,1,10.71,10.71,0,0,1,5.71,5.6,15.73,15.73,0,0,0,.87,1.55,4.49,4.49,0,0,0,4.18,2.36l3.78,0a7,7,0,0,1,3.72,1.05c.92.54,1.85,1.09,2.75,1.65a4.79,4.79,0,0,0,5.43,0c.69-.43,1.4-.82,2.07-1.26a8.31,8.31,0,0,1,5.11-1.47c1,.06,2,0,3.07,0a4.53,4.53,0,0,0,4.24-2.39c.44-.79.91-1.56,1.31-2.37a9,9,0,0,1,4.1-4.12c.82-.41,1.63-.88,2.42-1.35a4.3,4.3,0,0,0,2.31-3.39c.13-1.45,0-2.9,0-4.35a7.75,7.75,0,0,1,1.12-4.07c.56-.91,1.1-1.83,1.65-2.75A4.7,4.7,0,0,0,549,453.35Z" transform="translate(-422.54 -392.8)"/><path class="cls-23" d="M499.89,448.49c0,.59,0,1.19,0,1.78,0,.34.07.53.47.52,1.11,0,2.23,0,3.34,0a.87.87,0,0,0,.95-.93c0-.87,0-1.75,0-2.63a.88.88,0,0,0-1-1c-1.07,0-2.13,0-3.2,0-.44,0-.59.17-.57.59s0,1.1,0,1.64m-1.6,2.2c0-1.79,0-3.57,0-5.35,0-.52.11-.71.67-.69,1.61,0,3.23,0,4.84,0a2.4,2.4,0,0,1,2.47,2.33c0,1,0,2.05,0,3.07a2.37,2.37,0,0,1-2.35,2.3c-1.09,0-2.19,0-3.28,0-.55,0-.69.17-.67.69,0,1.05,0,2.09,0,3.14,0,.44-.18.85-.73.9a.81.81,0,0,1-.89-.56,1.79,1.79,0,0,1,0-.57c0-1.76,0-3.51,0-5.27" transform="translate(-422.54 -392.8)"/><path class="cls-23" d="M534.56,448.52c0,.59,0,1.19,0,1.78,0,.38.14.49.5.49,1.09,0,2.18,0,3.27,0a.89.89,0,0,0,1-.95c0-.88,0-1.76,0-2.64a.88.88,0,0,0-1-.92c-1,0-2.08,0-3.13,0-.46,0-.64.16-.61.62s0,1.09,0,1.64M533,450.66c0-1.78,0-3.56,0-5.35,0-.55.17-.67.69-.66,1.61,0,3.23,0,4.85,0a2.39,2.39,0,0,1,2.44,2.35c0,1,0,2,0,3a2.39,2.39,0,0,1-2.38,2.36c-1.12,0-2.24,0-3.35,0-.44,0-.58.14-.57.57,0,1,0,2.05,0,3.07,0,.55-.12,1.09-.84,1.08s-.84-.41-.84-1c0-1.8,0-3.61,0-5.42" transform="translate(-422.54 -392.8)"/><path class="cls-23" d="M516.16,450.89a3.14,3.14,0,0,0-.15-.69c-.57-1.2-1.15-2.4-1.76-3.57-.27-.52-.69-.51-1,0-.59,1.14-1.14,2.3-1.68,3.46a2,2,0,0,0,.07,1.78l1.56,3.13c.12.24.24.49.56.48s.39-.24.5-.46c.54-1.08,1.08-2.16,1.63-3.24a2.14,2.14,0,0,0,.23-.9m-6.31,0a2.32,2.32,0,0,1,.16-1.21c.66-1.37,1.27-2.77,2-4.08a2.07,2.07,0,0,1,3.62.13c.62,1.2,1.21,2.42,1.8,3.64a3.29,3.29,0,0,1,0,2.95c-.53,1.14-1.1,2.27-1.65,3.4a2.09,2.09,0,0,1-2.05,1.36,2.15,2.15,0,0,1-2-1.38q-.76-1.58-1.56-3.12a3,3,0,0,1-.39-1.69" transform="translate(-422.54 -392.8)"/><path class="cls-23" d="M525.49,448.7h-.19c-.21.74-.45,1.48-.65,2.22s-.75,1.43-.34,1.78,1.31.08,2,.1c.3,0,.36-.09.27-.38-.37-1.24-.72-2.48-1.08-3.72m3,8.39c-.47,0-.66-.31-.78-.69a13.5,13.5,0,0,1-.44-1.5c-.08-.43-.3-.53-.69-.52q-1.25,0-2.49,0a.56.56,0,0,0-.65.48c-.13.53-.33,1-.47,1.57a.74.74,0,0,1-1,.63c-.59-.14-.69-.62-.55-1.12.34-1.24.72-2.46,1.09-3.68.67-2.25,1.33-4.5,2-6.75.1-.35.21-.72.6-.82a.79.79,0,0,1,1.07.55q1.56,5.4,3.11,10.8a.78.78,0,0,1-.8,1" transform="translate(-422.54 -392.8)"/><path class="cls-23" d="M501.32,468.44a2.9,2.9,0,0,1-1.54-.42,3,3,0,0,1-1.07-1.12,3.27,3.27,0,0,1-.39-1.6,3.12,3.12,0,0,1,.41-1.62,3,3,0,0,1,1.12-1.12,3.11,3.11,0,0,1,1.61-.41,3,3,0,0,1,1.58.41,3.08,3.08,0,0,1,1.12,1.12,3.23,3.23,0,0,1,.42,1.62l-.38.18a3,3,0,0,1-.38,1.5,2.79,2.79,0,0,1-2.5,1.46Zm.14-.87a2.1,2.1,0,0,0,1.11-.3,2,2,0,0,0,.78-.81,2.4,2.4,0,0,0,.28-1.16,2.36,2.36,0,0,0-.28-1.17,2.12,2.12,0,0,0-.78-.82,2.29,2.29,0,0,0-2.23,0,2.22,2.22,0,0,0-.79.82,2.26,2.26,0,0,0-.3,1.17,2.31,2.31,0,0,0,.3,1.16,2.05,2.05,0,0,0,.79.81A2.11,2.11,0,0,0,501.46,467.57Zm2.64.81a.46.46,0,0,1-.35-.13.47.47,0,0,1-.14-.35V466l.22-1,.75.25v2.6a.43.43,0,0,1-.14.35A.47.47,0,0,1,504.1,468.38Z" transform="translate(-422.54 -392.8)"/><path class="cls-23" d="M508.19,463.25a.48.48,0,0,1-.32-.11.39.39,0,0,1-.13-.29.42.42,0,0,1,.13-.3.44.44,0,0,1,.32-.12H511a.44.44,0,0,1,.32.12.41.41,0,0,1,.12.3.38.38,0,0,1-.12.29.48.48,0,0,1-.32.11Zm2.71,5.13a2,2,0,0,1-1-.28,2,2,0,0,1-.73-.78,2.32,2.32,0,0,1-.27-1.12v-5.48a.48.48,0,0,1,.13-.35.46.46,0,0,1,.35-.13.44.44,0,0,1,.33.13.48.48,0,0,1,.14.35v5.48a1.24,1.24,0,0,0,.31.87,1,1,0,0,0,.78.35h.33a.39.39,0,0,1,.32.14.49.49,0,0,1,.12.34.44.44,0,0,1-.15.35.56.56,0,0,1-.39.13Z" transform="translate(-422.54 -392.8)"/><path class="cls-23" d="M515.82,466a.48.48,0,0,1-.35-.13.48.48,0,0,1-.14-.35v-5.42a.49.49,0,0,1,.14-.36.46.46,0,0,1,.35-.13.44.44,0,0,1,.34.13.48.48,0,0,1,.13.36v5.42a.48.48,0,0,1-.13.35A.44.44,0,0,1,515.82,466Zm0,2.43a.48.48,0,0,1-.35-.13.47.47,0,0,1-.14-.35v-5.21a.49.49,0,0,1,.14-.36.5.5,0,0,1,.35-.13.48.48,0,0,1,.34.13.48.48,0,0,1,.13.36v5.21a.46.46,0,0,1-.13.35A.44.44,0,0,1,515.82,468.38Zm4.79,0a.47.47,0,0,1-.35-.14.46.46,0,0,1-.14-.34V465a2.22,2.22,0,0,0-.26-1.13,1.66,1.66,0,0,0-.69-.65,2.29,2.29,0,0,0-1-.21,2.24,2.24,0,0,0-.95.2,1.71,1.71,0,0,0-.68.56,1.44,1.44,0,0,0-.25.82h-.64a2.36,2.36,0,0,1,.37-1.27,2.54,2.54,0,0,1,1-.89,2.7,2.7,0,0,1,1.33-.33,3,3,0,0,1,1.43.34,2.43,2.43,0,0,1,1,1,3.22,3.22,0,0,1,.36,1.59v2.87a.42.42,0,0,1-.14.34A.44.44,0,0,1,520.61,468.38Z" transform="translate(-422.54 -392.8)"/><path class="cls-23" d="M528.07,468.44a3.2,3.2,0,0,1-1.62-.41,3,3,0,0,1-1.11-1.12,3.19,3.19,0,0,1-.41-1.61,3.23,3.23,0,0,1,.41-1.63,3,3,0,0,1,1.11-1.12,3.19,3.19,0,0,1,1.62-.4,3.12,3.12,0,0,1,1.6.4,3,3,0,0,1,1.11,1.12,3.34,3.34,0,0,1,.42,1.63,3.19,3.19,0,0,1-.41,1.61,3,3,0,0,1-1.11,1.12A3.19,3.19,0,0,1,528.07,468.44Zm0-.87a2.15,2.15,0,0,0,1.13-.3,2,2,0,0,0,.77-.8,2.61,2.61,0,0,0,0-2.35,2,2,0,0,0-.77-.81,2.35,2.35,0,0,0-2.26,0,2.1,2.1,0,0,0-.78.81,2.53,2.53,0,0,0,0,2.35,2.07,2.07,0,0,0,.78.8A2.15,2.15,0,0,0,528.07,467.57Z" transform="translate(-422.54 -392.8)"/><path class="cls-23" d="M535.64,468.38a.46.46,0,0,1-.35-.13.47.47,0,0,1-.14-.35v-5.21a.49.49,0,0,1,.14-.36.5.5,0,0,1,.35-.13.49.49,0,0,1,.34.13.48.48,0,0,1,.13.36v5.21a.46.46,0,0,1-.13.35A.45.45,0,0,1,535.64,468.38Zm4.78,0a.48.48,0,0,1-.35-.14.45.45,0,0,1-.13-.34V465a2.22,2.22,0,0,0-.26-1.13,1.63,1.63,0,0,0-.7-.65,2.22,2.22,0,0,0-1-.21,2.24,2.24,0,0,0-1,.2,1.65,1.65,0,0,0-.68.56,1.37,1.37,0,0,0-.25.82h-.64a2.36,2.36,0,0,1,.36-1.27,2.65,2.65,0,0,1,1-.89,2.7,2.7,0,0,1,1.33-.33,3,3,0,0,1,1.43.34,2.43,2.43,0,0,1,1,1,3.22,3.22,0,0,1,.36,1.59v2.87a.48.48,0,0,1-.48.48Z" transform="translate(-422.54 -392.8)"/></g></g></svg>