<svg xmlns="http://www.w3.org/2000/svg" xmlns:xlink="http://www.w3.org/1999/xlink" viewBox="0 0 353.51 250.18"><defs><style>.cls-1,.cls-14,.cls-19,.cls-20,.cls-30,.cls-31,.cls-33,.cls-35,.cls-37,.cls-38,.cls-7{fill:none;}.cls-17,.cls-2,.cls-22,.cls-27,.cls-28,.cls-34,.cls-36{isolation:isolate;}.Graphic-Style-4,.cls-18{fill:#f9879a;}.Graphic-Style-4{opacity:0.3;}.cls-3{fill:#4a23e8;}.cls-4{fill:#fa9bab;}.cls-5{fill:#7fdecd;}.cls-6{fill:#889be5;}.cls-19,.cls-7{stroke:#fff;}.cls-14,.cls-19,.cls-20,.cls-25,.cls-30,.cls-31,.cls-33,.cls-35,.cls-38,.cls-7{stroke-linecap:round;}.cls-37,.cls-38,.cls-7{stroke-miterlimit:10;}.cls-14,.cls-7{stroke-width:1.5px;}.cls-8{mix-blend-mode:multiply;opacity:0.15;}.cls-9{fill:#b0bdee;}.cls-10{fill:#a83e54;}.cls-11{clip-path:url(#clip-path);}.cls-12{fill:#ff6581;}.cls-13{fill:#fff;}.cls-14,.cls-37,.cls-38{stroke:#4a23e8;}.cls-14,.cls-19,.cls-20,.cls-25,.cls-30,.cls-31,.cls-33,.cls-35{stroke-linejoin:round;}.cls-15{fill:#8076fa;}.cls-16{fill:#dee3f8;}.cls-17{fill:#3e1ec4;}.cls-17,.cls-22,.cls-34{opacity:0.32;}.cls-19,.cls-20{stroke-width:1.51px;}.cls-20,.cls-25,.cls-30,.cls-33{stroke:#6535ff;}.cls-21{fill:#62bcf9;}.cls-22,.cls-24,.cls-36{fill:#6534ff;}.cls-23{clip-path:url(#clip-path-2);}.cls-25,.cls-26{fill:#fccdd3;}.cls-25{stroke-width:0.41px;}.cls-27,.cls-34{fill:#bbc4ef;}.cls-27{opacity:0.44;}.cls-28{fill:#070707;opacity:0.18;}.cls-29{fill:#52d2bc;}.cls-30,.cls-31{stroke-width:2.23px;}.cls-31,.cls-35{stroke:#bbc4ef;}.cls-32{clip-path:url(#clip-path-3);}.cls-33,.cls-35{stroke-width:2.15px;}.cls-36{opacity:0.1;}</style><clipPath id="clip-path" transform="translate(-330.26 -372.3)"><path class="cls-1" d="M430.88,497c5.51-.7,11-5.29,11.9.37s-5.12,10.48-10.87,10.9-13.85-1.38-14.63-6.77S426.09,497.61,430.88,497Z"/></clipPath><clipPath id="clip-path-2" transform="translate(-330.26 -372.3)"><path class="cls-1" d="M503.6,507.67c-5.37,0-10.92-3.11-11.49,1.44s5.47,7.76,11.05,7.54,13.33-2.42,13.81-6.75S508.26,507.69,503.6,507.67Z"/></clipPath><clipPath id="clip-path-3" transform="translate(-330.26 -372.3)"><path class="cls-1" d="M591.51,487.44c-2.5,3.63-17.22,6.62-20.34-1.39-1.42-3.65,3.88-1.11,9.28-.95C587.6,485.31,593.71,484.26,591.51,487.44Z"/></clipPath></defs><g class="cls-2"><g id="Layer_1" data-name="Layer 1"><path class="Graphic-Style-4" d="M662,529.13c32.75-19.09,25.21-51.42-.35-48.12s3.46-29.51-5.18-57.48-44-80.81-96.06-30-52.31,11.05-60.65,4.14-31-23.14-38.65-7.6-57.84-41.44-76.1,1.73-39,9.74-52.45,56.84,37.64,36.07,27.28,64.55-27.63,89.74,2.42,79.14,66.64-15.82,82.35,6.47,58.25,35,79.63,10S563,580.82,565.37,597s34.1,28.86,46.88-.29S631.94,546.65,662,529.13Z" transform="translate(-330.26 -372.3)"/><path class="cls-3" d="M475,534.12c-6.33-7.6-1-10.06-4.14-17.46s.7-8-2.5-17.25-4.41-13.29-3.11-20.46,5.26-6.35,7.51-11.72-3.37-7.88,7.68-9,.26-7.42,12.09-8,13.21-3.37,20.37-1.73,11.74,2.82,18,8.88,4.14,6.08,9.23,12,.61,7.15,3.8,16-1.29,12.44-.6,18.76-9.5,6.19-7.43,15.86,4.45,11.44.91,17.74-18.52,7.08-21.19,4.75-21.76-11.83-25-9S477.12,536.7,475,534.12Z" transform="translate(-330.26 -372.3)"/><path class="cls-3" d="M604.06,497.49a18,18,0,0,0,11.48,12c-2.15-6-1.38-15.94,2.16-20C610.88,487.71,604.06,497.49,604.06,497.49Z" transform="translate(-330.26 -372.3)"/><path class="cls-4" d="M607.91,501.39c2.9,1.17,4.32,1.35,9.63,6.7,4.86,4.89,8.37,12.84,10.29,17.63,2.74,6.84,4.24,13.38-2.39,15.52s-19.82-10.43-25.39-14.38c-4.07-2.89-3-7.65,3-4.85,4.51,2.11,18.33,10.45,17.36,7.22-.91-3-2.45-5.28-7.19-10.78-2.94-3.42-6.15-3.05-13.73-5.18" transform="translate(-330.26 -372.3)"/><path class="cls-4" d="M569.59,568.35c-.17-19.12,2.08-42.61,3.73-48.26,2-6.91-1.71-4.66-3.42-1.68s-9.73,15.19-8.95,19.4c1.81,9.86,1.3,20.71-4,18.23s-3.84-17.42-3.71-26c.07-4.69,3.49-9.89,5.57-13.38a69.19,69.19,0,0,1,8.13-10.81c4.78-5.33,6.62-5.18,14-7.38l25.72,1.65s7.37,8.75,2.64,14.45c-2.88,3.47-1.48,31.15-1.07,50.15C608.5,577.48,569.66,576.23,569.59,568.35Z" transform="translate(-330.26 -372.3)"/><path class="cls-3" d="M612.66,498.4a18,18,0,0,0,11.48,12c-2.16-6-1.38-15.95,2.16-20C619.48,488.61,612.66,498.4,612.66,498.4Z" transform="translate(-330.26 -372.3)"/><path class="cls-5" d="M401.71,517.83c-3.07,1.17-6.57,2.63-12.19,8-5.15,4.89-8.16,9.06-11.82,14-4.5,6-6.75,15.2.31,17.22a34.23,34.23,0,0,0,15.2,1c5.06-.77,5.51-7.48.26-7.48-8.55,0-8.83-3.35-6.74-5.82,3.89-4.57,5.1-6.13,8.48-9.08s6.69-5.25,7.26,2.06" transform="translate(-330.26 -372.3)"/><path class="cls-5" d="M442.35,581.68c.34-18.47-2.34-39.8-4-45.15-2.15-6.91,1-4,3.62-1.68,3.72,3.29,11.49,7.81,16,7.81s16.58-1.27,22.19-3.75c5.46-2.42,3.63-7.9-1.3-7.26s-18.12,1.15-22.06-.12c-3.1-1-6.34-4.3-11.71-9.24s-7-5.18-14.84-7.38l-31.16,3.15s-3.89,7.25,1.12,13c3.17,3.61,1.76,33.38,1.06,52.35C401.07,589.54,442.2,589.86,442.35,581.68Z" transform="translate(-330.26 -372.3)"/><path class="cls-6" d="M543.34,539.6c-7.39-8.52-12.19-9.74-16-12.05l-.06,0a40.92,40.92,0,0,0-14.43-5.23c-6.86-1.25-20.83,0-20.83,0-7.4,2.89-14.95,3.43-19.57,10.44-2.54,3.85-6.69,11-12.87,24-5.77,12.11-.55,14.58,6.31,14.29,6-.26,12.26-2.16,14.72-3.58s2.47-11.06-3.24-8.78c-8.8,3.51-6.63-.24-5.26-3.27,2.08-4.62,3.88-6.47,6.17-9.62,1.93-2.67,6-5,7.77,4.82,1.2,6.51,1.8,24.06,1.56,36.47-.17,9.12,39.73,9,40.1,0,.45-11,.82-26.79,1.16-29.59a63.38,63.38,0,0,0,.73-12.57c0-1.21,1.79-1.12,2.75-.38a65.82,65.82,0,0,1,6.79,5.82c3.85,4.33,4.94,7.21-1.19,6.22-8.07-1.29-7,8.31-1.07,9.5a48.11,48.11,0,0,0,13.72.4C558.74,565.83,550.41,547.77,543.34,539.6Z" transform="translate(-330.26 -372.3)"/><path class="cls-7" d="M574.32,500.44a20.41,20.41,0,0,0-8.07,6.19" transform="translate(-330.26 -372.3)"/><g class="cls-8"><path class="cls-3" d="M438.24,517.41a66,66,0,0,0-8-2.5l-31.16,3.15s-.21.4-.47,1.06c-.62.31-1.27.66-2,1.07a36.89,36.89,0,0,0,41.56-2.78Zm.63,21.2A23.3,23.3,0,0,0,402,540.09c.41,7,.22,17-.09,26.85a23.31,23.31,0,0,0,39.9-2.83A206.78,206.78,0,0,0,438.87,538.61Z" transform="translate(-330.26 -372.3)"/></g><circle class="cls-9" cx="85.17" cy="113.08" r="36.91"/><path class="cls-10" d="M430.88,497c5.51-.7,11-5.29,11.9.37s-5.12,10.48-10.87,10.9-13.85-1.38-14.63-6.77S426.09,497.61,430.88,497Z" transform="translate(-330.26 -372.3)"/><g class="cls-11"><path class="cls-12" d="M425.43,507.84c.37-3.44,7.75-8.18,12.54-1.62S424.72,514.39,425.43,507.84Z" transform="translate(-330.26 -372.3)"/><path class="cls-13" d="M421.9,497.47c1.87,2.4,15.94,4.1,15.43-2.31S419,493.77,421.9,497.47Z" transform="translate(-330.26 -372.3)"/></g><path class="cls-14" d="M414,479.49a3.7,3.7,0,0,1,5.62-1.43" transform="translate(-330.26 -372.3)"/><path class="cls-14" d="M437.57,476.82a3.7,3.7,0,0,1,5.62-1.43" transform="translate(-330.26 -372.3)"/><path class="cls-15" d="M382.65,502.35c-.67-18.74,14.23-31.5,19.82-35.74S415,454.3,426.36,453.76s14.93-.84,14.93-.84-2.84-9.41-7.89-13.21S427.53,436,412,435.25c-6.23-.32-13.47,3.46-21.83,9.35-10.19,7.17-12.3,21.57-13.1,25.08C373.57,485.09,377.12,494.42,382.65,502.35Z" transform="translate(-330.26 -372.3)"/><path class="cls-3" d="M396.18,472.08c9.13-4.84,32.94-17.47,47.59-10.35,8.57-5.57,26.7-11.53,13.75-16a52.5,52.5,0,0,0-41,2.33C409.29,451.64,399.57,466.9,396.18,472.08Z" transform="translate(-330.26 -372.3)"/><path class="cls-7" d="M407,456.89c4.27-4.77,6.92-9.17,17.77-12.12" transform="translate(-330.26 -372.3)"/><path class="cls-9" d="M388.7,552.18c.89-2.48,7.09-6.92,11.83-7.25s4,1.71.87,2.82-6.85,1.9-4.55,4C400,554.5,387.35,555.89,388.7,552.18Z" transform="translate(-330.26 -372.3)"/><path class="cls-16" d="M538.09,557.6c-2.54-2.41-4.45-4.19-8.87-5.13s-2,1.73-.78,2.24,3.34,0,3.65,2.48S540.5,559.89,538.09,557.6Z" transform="translate(-330.26 -372.3)"/><circle class="cls-13" cx="90.74" cy="178.25" r="23.32"/><path class="cls-7" d="M398.65,519.12c-4.23,1.87-8.77,5.43-13.36,11" transform="translate(-330.26 -372.3)"/><path class="cls-17" d="M436.1,558.63V544.27a3.68,3.68,0,0,0-1.81-3.19L422,533.92a3.62,3.62,0,0,0-3.63,0l-12.26,7.17a3.67,3.67,0,0,0-1.82,3.19v14.36a3.64,3.64,0,0,0,1.82,3.18L418.38,569a3.62,3.62,0,0,0,3.63,0l12.27-7.17A3.69,3.69,0,0,0,436.1,558.63Z" transform="translate(-330.26 -372.3)"/><path class="cls-18" d="M436.63,557.56V543.22a3.68,3.68,0,0,0-1.82-3.19l-12.25-7.17a3.62,3.62,0,0,0-3.63,0L406.65,540a3.67,3.67,0,0,0-1.81,3.19v14.34a3.68,3.68,0,0,0,1.81,3.19l12.28,7.17a3.62,3.62,0,0,0,3.63,0l12.27-7.17A3.68,3.68,0,0,0,436.63,557.56Z" transform="translate(-330.26 -372.3)"/><path class="cls-19" d="M436.1,542.57a3.63,3.63,0,0,0-1.82-3.15L422,532.33a3.62,3.62,0,0,0-3.63,0l-12.27,7.09a3.62,3.62,0,0,0-1.81,3.15v14.2a3.62,3.62,0,0,0,1.81,3.16" transform="translate(-330.26 -372.3)"/><polygon class="cls-13" points="100.64 180.67 102.13 178.09 100.64 175.5 100.64 172.52 98.06 171.03 96.57 168.45 93.58 168.45 91 166.96 88.42 168.45 85.44 168.45 83.95 171.03 81.36 172.52 81.36 175.5 79.87 178.09 81.36 180.67 81.36 183.65 83.95 185.14 85.44 187.72 88.42 187.72 91 189.22 93.58 187.72 96.57 187.72 98.06 185.14 100.64 183.65 100.64 180.67"/><polyline class="cls-20" points="100.01 171.97 97.44 170.48 95.96 167.91 92.99 167.91 90.42 166.43 87.85 167.91 84.88 167.91 83.4 170.48 80.83 171.97 80.83 174.93 79.34 177.5 80.83 180.07 80.83 183.04 83.4 184.53 84.88 187.1 87.85 187.1"/><circle class="cls-21" cx="91" cy="177.56" r="4.24"/><path class="cls-20" d="M419.12,553.57a4.15,4.15,0,0,1-1.51-3.91,4.2,4.2,0,0,1,6.83-2.54" transform="translate(-330.26 -372.3)"/><path class="cls-22" d="M435.83,540l-12.65-7.18a3.84,3.84,0,0,0-1.41-.46,7.2,7.2,0,0,0-.58,1.75,13.35,13.35,0,0,0,.62,6.16,50.82,50.82,0,0,1,1.7,6,15.11,15.11,0,0,1-1,8.35c-1.45,3.43-4.13,6.32-5.15,9.9a11.49,11.49,0,0,0-.38,2l2.39,1.36a3.83,3.83,0,0,0,3.74,0l12.66-7.18a3.67,3.67,0,0,0,1.88-3.2V543.21A3.65,3.65,0,0,0,435.83,540Z" transform="translate(-330.26 -372.3)"/><path class="cls-19" d="M422.85,566.29l11.66-6.89" transform="translate(-330.26 -372.3)"/><path class="cls-9" d="M391.23,558.24c-1.79-1-2.72-1.86-2.64-5.11s7.38-7.77,7.48-3.78c.06,2.2,2.28,2.3,4.49,2.78s4.78,1.17,6.62,1.44,2.09,3.09-.55,2.75c-1-.14-4.44-.77-6.44-1.2-.91-.2-.81.84,1.16,2,1.21.73,1.63,1.84,5.53,1,1-.24,3,1.88-.1,2.68s-4.94.46-6.12-.52-1.57-.06-.12.8a8.63,8.63,0,0,0,4.71,1.25c2,.06,1.62,2.24-.42,2.16s-5.47-.29-6.84-1.29S393.28,559.46,391.23,558.24Z" transform="translate(-330.26 -372.3)"/><path class="cls-16" d="M477.81,558.18c2.54-2.41,4.45-4.18,8.87-5.12s2,1.72.78,2.23-3.34,0-3.64,2.48S475.4,560.47,477.81,558.18Z" transform="translate(-330.26 -372.3)"/><g class="cls-8"><path class="cls-3" d="M508,536.22a23.33,23.33,0,0,0-21.79,15,182.18,182.18,0,0,1,1.23,19.29,23.3,23.3,0,0,0,40.82.54c.23-6.52.47-12.08.66-13.64.31-2.59.58-4.26.7-6.62A23.33,23.33,0,0,0,508,536.22Zm5.21-7.88a36.89,36.89,0,0,0,9.17-3.35,48.21,48.21,0,0,0-9.48-2.7c-6.86-1.25-20.83,0-20.83,0-1.84.72-3.68,1.29-5.49,1.85A36.76,36.76,0,0,0,513.21,528.34Z" transform="translate(-330.26 -372.3)"/></g><circle class="cls-16" cx="174.97" cy="116.51" r="36.91"/><path class="cls-10" d="M503.6,507.67c-5.37,0-10.92-3.11-11.49,1.44s5.47,7.76,11.05,7.54,13.33-2.42,13.81-6.75S508.26,507.69,503.6,507.67Z" transform="translate(-330.26 -372.3)"/><g class="cls-23"><path class="cls-12" d="M509.41,515.68c-.53-2.67-7.9-5.69-12.21-.07S510.43,520.78,509.41,515.68Z" transform="translate(-330.26 -372.3)"/><path class="cls-13" d="M512.3,507.17c-1.69,2.07-15.2,4.77-15-.33S514.91,504,512.3,507.17Z" transform="translate(-330.26 -372.3)"/></g><ellipse class="cls-3" cx="187.93" cy="116.51" rx="1.99" ry="2.76"/><ellipse class="cls-3" cx="159.29" cy="116.51" rx="1.99" ry="2.76"/><path class="cls-3" d="M504.53,463c-5.18,4.3-9.73,2.32-16.55,5.5s-8.27,2.29-11.64,14.12.6,10.39,1.9,18.87c.49,3.17-.87,11.4.61,16.78,2.85,10.36-2.89,21.91-5.44,22.27-4.08.59-5.22-17.46-5.09-22.38s-.28-8.74-2.55-18.71-3.9-22.82,1.87-28.13-1-13,8.72-16.28,8.72-10.76,16.3-9.66,8.23,1.39,10.68,2.62c4.38-2.14,8.25-6.37,14.85-4.49s4.08,4.72,12.11,7.51,9.6,5.57,10.9,11.72,1.42,7.7,4.27,18.77-3,13.58-1.55,20.88-1.94,20.18-1,27-2.41,17.8-5.83,17.29c-4.72-.72-4.31-17.07-5.73-21.76s3.4-7.52,1.72-13.28-3.64-14.88-1.72-20.58S532.85,481,529,476.82s-1.93-9.21-8.85-8.88C508.07,468.53,504.53,463,504.53,463Z" transform="translate(-330.26 -372.3)"/><circle class="cls-13" cx="177.74" cy="183.74" r="23.32"/><path class="cls-24" d="M507.19,572.08a3.06,3.06,0,0,1-1.94-.7l-9.67-8a2.92,2.92,0,0,1-1.09-2.27V544.05a1.28,1.28,0,0,1,.89-1.21,37.87,37.87,0,0,1,23.63,0,1.28,1.28,0,0,1,.89,1.21v17.06a2.94,2.94,0,0,1-1.08,2.27l-9.68,8a3.08,3.08,0,0,1-1.95.69Z" transform="translate(-330.26 -372.3)"/><polygon class="cls-25" points="178.67 187.61 174.61 185.11 178.61 190.83 182.84 185.26 178.67 187.61"/><polygon class="cls-25" points="174.61 183.77 174.64 183.77 178.72 186.18 182.81 183.92 182.83 183.93 182.82 183.92 182.84 183.91 178.89 176.88 174.61 183.76 174.63 183.77 174.61 183.77"/><path class="cls-26" d="M520.39,543.58h0a37.14,37.14,0,0,0-23.53,0h0a2.42,2.42,0,0,0-1.65,2.3v16.76a4.11,4.11,0,0,0,1.45,3.13l9.34,7.86a4.09,4.09,0,0,0,5.25,0l9.34-7.86a4.11,4.11,0,0,0,1.45-3.13V545.88a2.42,2.42,0,0,0-1.65-2.3Zm.48,19.06a2.92,2.92,0,0,1-1,2.23l-9.34,7.86a2.9,2.9,0,0,1-3.74,0l-9.33-7.86a2.92,2.92,0,0,1-1-2.23V545.88a1.25,1.25,0,0,1,.85-1.19,35.94,35.94,0,0,1,22.78,0,1.26,1.26,0,0,1,.86,1.19Z" transform="translate(-330.26 -372.3)"/><path class="cls-27" d="M521.68,562.5V545.8a2.42,2.42,0,0,0-1.61-2.29h0a35.41,35.41,0,0,0-9.44-1.84,13.37,13.37,0,0,1,2.08,5,37.88,37.88,0,0,1,.64,6.56,15,15,0,0,1-.15,3.55c-.56,2.82-2.67,5-3.67,7.73a13.39,13.39,0,0,0-.49,6.94,21.14,21.14,0,0,0,.68,2.8,4,4,0,0,0,1.43-.79l9.11-7.83A4.09,4.09,0,0,0,521.68,562.5Z" transform="translate(-330.26 -372.3)"/><path class="cls-28" d="M499.82,560.63,493.58,559a.87.87,0,0,1-.62-.25.83.83,0,0,1-.26-.6l0-3.07a.88.88,0,0,1,.88-.85l6.24,1.67a.39.39,0,0,1,.35.22.37.37,0,0,1-.07.4l-2.25.69a.36.36,0,0,0,0,.49L500.1,560a.35.35,0,0,1,.06.4A.37.37,0,0,1,499.82,560.63Zm17.61-4.81,6.24-1.63a.87.87,0,0,1,.88.86l0,3.09a.87.87,0,0,1-.26.61.9.9,0,0,1-.62.25l-6.24,1.63a.37.37,0,0,1-.28-.62l2.25-2.35a.37.37,0,0,0,0-.5l-2.22-.72a.35.35,0,0,1-.07-.4.38.38,0,0,1,.34-.22Z" transform="translate(-330.26 -372.3)"/><path class="cls-29" d="M499.82,559.2l-6.24,0a.87.87,0,0,1-.62-.25.83.83,0,0,1-.26-.61l0-4.71a.87.87,0,0,1,.88-.85l6.24,0a.39.39,0,0,1,.35.22.37.37,0,0,1-.07.4l-2.25,2.34a.36.36,0,0,0,0,.49l2.23,2.37a.35.35,0,0,1,0,.39A.38.38,0,0,1,499.82,559.2Zm17.61-6.44,6.24,0a.88.88,0,0,1,.88.86l0,4.71a.85.85,0,0,1-.26.6.9.9,0,0,1-.62.25l-6.24,0a.37.37,0,0,1-.28-.62l2.25-2.34a.36.36,0,0,0,0-.49l-2.23-2.36a.37.37,0,0,1,.28-.61Z" transform="translate(-330.26 -372.3)"/><path class="cls-30" d="M497.53,556.88l2.23,2.41a.37.37,0,0,1,.07.4.4.4,0,0,1-.35.23l-6.26,0a.85.85,0,0,1-.62-.26.82.82,0,0,1-.25-.61v-4.83m30.76,5.73-6.08,0a.36.36,0,0,1-.33-.23.38.38,0,0,1,.07-.41l2.17-2.44a.4.4,0,0,0,0-.52l-2.17-2.46" transform="translate(-330.26 -372.3)"/><path class="cls-31" d="M498.79,564.21l8.23,7.15" transform="translate(-330.26 -372.3)"/><g class="cls-8"><path class="cls-3" d="M607.91,501.39l-.15.22c-.63-.93-1.1-1.49-1.1-1.49l-25.72-1.65c-2.73.81-4.71,1.31-6.35,1.88a36.85,36.85,0,0,0,37.8,3.19A19.66,19.66,0,0,0,607.91,501.39Zm-53.18,40a23.16,23.16,0,0,0,5.06,14.49c2.57-2.12,2.57-10.4,1.16-18.08-.68-3.69,5.39-13.53,8-17.91A23.34,23.34,0,0,0,554.73,541.4Zm23.32-23.32a23.91,23.91,0,0,0-4.34.41,15.9,15.9,0,0,1-.39,1.6c-1.5,5.15-3.68,25.07-3.77,43a23.32,23.32,0,1,0,8.5-45Z" transform="translate(-330.26 -372.3)"/></g><path class="cls-3" d="M573.08,434.4c-11.61-2.07-17.05,13.86-18.35,24.48a37.2,37.2,0,0,1,6.22-5.83c-3.11,8.94-.13,14.31,4.53,20.85s10.75-18,10.75-18Z" transform="translate(-330.26 -372.3)"/><circle class="cls-6" cx="265.89" cy="94.92" r="36.91"/><ellipse class="cls-3" cx="259.93" cy="96.71" rx="1.99" ry="2.76"/><ellipse class="cls-3" cx="238.4" cy="94.81" rx="1.99" ry="2.76"/><path class="cls-3" d="M575.36,415.84c-9.21,9.71-8.2,35.27,13,32.16s24-.91,23.18,4.27-1.46,10.86.11,13.52a19.18,19.18,0,0,1,6.62-8.85c-2.84,6.73-.38,14.21,1.69,18.56,1-5.23,2.72-5.65,3.23-5.82-.77,3.83-5,35.49,9.84,42.94-1.19-5.35-2.87-18.09,0-26.07,4-11.08,8.09-21.78,5.83-33.63-1.55-8.16-3.88-9.75-6.86-9.58,1.3-5.79-7.25-12.3-11.91-15.54s-15.15-7-21.63-5.05-12.56-1-13.6-7.9c-1.9,5.44-.64,8.8,2.15,11.09C580.2,425.84,576.72,425.94,575.36,415.84Z" transform="translate(-330.26 -372.3)"/><path class="cls-13" d="M591.51,487.44c-2.5,3.63-16.49,7.78-20.34-1.39-1.52-3.61,3.88-1.11,9.28-.95C587.6,485.31,593.71,484.26,591.51,487.44Z" transform="translate(-330.26 -372.3)"/><g class="cls-32"><path class="cls-10" d="M580.61,488c-12.75-.61-11.28-5.49-12.56-3.77s6.35,5.33,12.9,5.12c7.63-.24,18.72-2.43,19.87-4.06S589.37,488.4,580.61,488Z" transform="translate(-330.26 -372.3)"/></g><path class="cls-7" d="M575.36,415.84a21.05,21.05,0,0,0-5.3,12.17" transform="translate(-330.26 -372.3)"/><circle class="cls-13" cx="247.79" cy="165.92" r="23.32"/><path class="cls-17" d="M590.84,537.58a2.36,2.36,0,0,0-2.34-2.36h-.13l.12,0a5.2,5.2,0,0,1-1.13-6.38,2.37,2.37,0,0,0-1.26-1.7,1.66,1.66,0,0,0-.31-.12,2.35,2.35,0,0,0-2.4.57l-.08.09.05-.11a11.37,11.37,0,0,1-6.68-4.11,2.35,2.35,0,0,0-2.33,2.3v.12a.56.56,0,0,0,0-.12,2.36,2.36,0,0,0-3.71-.88,2.72,2.72,0,0,0-.24.24,1.67,1.67,0,1,1-2.78,1.86,1.3,1.3,0,0,0-.3.13,2.31,2.31,0,0,0-1.27,1.72,2.34,2.34,0,0,0,.64,2l.1.09-.11-.06a10.91,10.91,0,0,1-4.19,6.69,2.35,2.35,0,0,0,2.38,2.32H565l-.12,0a2.35,2.35,0,0,0,.94,4.48,2.24,2.24,0,0,0,.84-.16,2.41,2.41,0,0,0-.62,2,2.34,2.34,0,0,0,1.27,1.7,1.6,1.6,0,0,0,.3.13,2.39,2.39,0,0,0,2.4-.57l.08-.1a.61.61,0,0,0,0,.12,2.35,2.35,0,0,0,.28,2.3,2.41,2.41,0,0,0,.34.37l-2.87,6a.42.42,0,0,0,0,.44.43.43,0,0,0,.43.13l3.08-.85a.4.4,0,0,1,.48.23l1.39,3a.41.41,0,0,0,.74,0l2.72-5.67,2.66,5.7a.43.43,0,0,0,.38.23.41.41,0,0,0,.37-.23l1.41-3a.41.41,0,0,1,.48-.22l3.08.87a.42.42,0,0,0,.48-.57l-2.83-6,.07,0L583,550a2.39,2.39,0,0,0,.41-2.39,2.33,2.33,0,0,0,2.36.54l.3-.12a2.37,2.37,0,0,0,1.27-1.72,2.33,2.33,0,0,0-.65-2l-.09-.08.11.05a2.35,2.35,0,0,0,3.07-1.27h0a3,3,0,0,1,1.09-5.36Z" transform="translate(-330.26 -372.3)"/><path class="cls-26" d="M586.1,556.49l-3-.86a.41.41,0,0,0-.48.22l-1.39,3a.4.4,0,0,1-.73,0l-3.79-8.12a.43.43,0,0,1,.2-.55l5.39-2.56a.37.37,0,0,1,.31,0,.37.37,0,0,1,.23.21l3.77,8.1a.39.39,0,0,1-.06.44.41.41,0,0,1-.42.13Z" transform="translate(-330.26 -372.3)"/><path class="cls-26" d="M569.49,556.46l3-.85a.41.41,0,0,1,.47.23l1.36,3a.41.41,0,0,0,.74,0l3.82-8.09a.42.42,0,0,0-.19-.55l-5.35-2.59a.4.4,0,0,0-.54.19L569,555.89a.44.44,0,0,0,.06.44A.41.41,0,0,0,569.49,556.46Z" transform="translate(-330.26 -372.3)"/><path class="cls-22" d="M578.7,550.31l-1-.43a2.88,2.88,0,0,1-1,2.41c-.56.48-1.29.74-1.88,1.19a7.1,7.1,0,0,0-1.33,1.41,3.64,3.64,0,0,0-.55.87,2.48,2.48,0,0,0-.12.54l1.24,2.56a.45.45,0,0,0,.79,0l4.07-8a.4.4,0,0,0-.21-.54Zm4.35-2.49a.39.39,0,0,0-.39-.24,5.61,5.61,0,0,0,0,.82,20.1,20.1,0,0,1-.17,3.29,4.2,4.2,0,0,0,0,1.54c.26,1,1.24,1.51,2,2.12a6.46,6.46,0,0,1,.79.78l.88.26a.37.37,0,0,0,.39-.13.42.42,0,0,0,.05-.43Z" transform="translate(-330.26 -372.3)"/><path class="cls-22" d="M581.62,544.15a3,3,0,0,0-2.24,1,2.84,2.84,0,0,0-2.48-.12,3,3,0,0,0-2.14-.93,3.3,3.3,0,0,0,0,6.58,2.9,2.9,0,0,0,1.12-.22,3,3,0,0,0,2.21.93,2.94,2.94,0,0,0,2.17-1,2.83,2.83,0,0,0,1.36.34,3.3,3.3,0,0,0,0-6.58Z" transform="translate(-330.26 -372.3)"/><path class="cls-18" d="M592.37,536.88a2.35,2.35,0,0,0-2.34-2.36h-.13l.12,0a5.26,5.26,0,0,1-1.13-6.42,2.36,2.36,0,0,0-1.27-1.71l-.31-.13a2.37,2.37,0,0,0-2.4.58l-.08.08,0-.1a11.35,11.35,0,0,1-6.7-4.13,2.35,2.35,0,0,0-2.33,2.31v.12a1.17,1.17,0,0,0-.05-.11,2.36,2.36,0,0,0-1.63-1.4,2.39,2.39,0,0,0-2.09.51,2.72,2.72,0,0,0-.24.24,2.38,2.38,0,0,0-.42,2.4,2.36,2.36,0,0,0-2.36-.54,1.34,1.34,0,0,0-.3.12,2.35,2.35,0,0,0-1.28,1.73,2.33,2.33,0,0,0,.65,2.05l.09.09-.11-.06a11.35,11.35,0,0,1-4.12,6.72,2.35,2.35,0,0,0,2.3,2.33h.13l-.12,0a2.37,2.37,0,0,0-1.28,3.08h0a2.36,2.36,0,0,0,2.17,1.46,2.2,2.2,0,0,0,.84-.16,2.39,2.39,0,0,0-.61,2,2.34,2.34,0,0,0,1.27,1.71,1.69,1.69,0,0,0,.31.13,2.37,2.37,0,0,0,2.4-.58l.09-.09-.06.12a2.35,2.35,0,0,0,.29,2.31,2.05,2.05,0,0,0,.46.47,3.59,3.59,0,0,1,6,1.34,2.35,2.35,0,0,0,2.33-2.31v-.12s0,.08,0,.12a2.35,2.35,0,0,0,2.17,1.45,2.42,2.42,0,0,0,1.56-.57l.24-.24a2.41,2.41,0,0,0,.41-2.4,2.37,2.37,0,0,0,2.37.54l.3-.12a2.37,2.37,0,0,0,.63-3.78l-.09-.09.11.06a2.34,2.34,0,0,0,3.07-1.28h0a3,3,0,0,1,1.1-5.41Z" transform="translate(-330.26 -372.3)"/><path class="cls-33" d="M591.6,537a2.36,2.36,0,0,0-2.35-2.38h-.13l.12-.05a5.26,5.26,0,0,1-1.13-6.45,2.39,2.39,0,0,0-1.28-1.72l-.31-.13a2.38,2.38,0,0,0-2.41.58l-.09.09a.54.54,0,0,0,.05-.11,11.28,11.28,0,0,1-6.73-4.15A2.36,2.36,0,0,0,575,525v.13s0-.08,0-.12a2.38,2.38,0,0,0-3.75-.89,1.88,1.88,0,0,0-.24.25,2.4,2.4,0,0,0-.42,2.41,2.37,2.37,0,0,0-2.38-.55,1.88,1.88,0,0,0-.3.12,2.39,2.39,0,0,0-.63,3.81l.09.08-.11-.05a12.46,12.46,0,0,1-4,6.76,2.36,2.36,0,0,0,2.21,2.32h.13l-.12,0a2.37,2.37,0,0,0-1.28,3.1h0a2.37,2.37,0,0,0,2.17,1.46,2.34,2.34,0,0,0,.86-.16,2.38,2.38,0,0,0,.66,3.77l.3.12" transform="translate(-330.26 -372.3)"/><circle class="cls-34" cx="247.73" cy="165.12" r="10.93"/><path class="cls-35" d="M567.82,533.39a10.53,10.53,0,0,1,6.74-6.77,10.39,10.39,0,0,1,9.37,1.5" transform="translate(-330.26 -372.3)"/><path class="cls-36" d="M592.37,537.14a2.38,2.38,0,0,0-2.38-2.38h-.13l.12,0a2.36,2.36,0,0,0,1.26-3.05,2.4,2.4,0,0,0-3-1.36,2.37,2.37,0,0,0,.63-2.06,2.41,2.41,0,0,0-1.3-1.72,1.66,1.66,0,0,0-.31-.12,2.39,2.39,0,0,0-2.44.58l-.08.08a1.17,1.17,0,0,0,0-.11,2.35,2.35,0,0,0,.16-1.23,4.87,4.87,0,0,0-1,1.76,13.9,13.9,0,0,0-.33,2,9.35,9.35,0,0,1-1.53,3.93c-1.31,1.91-3.34,3.36-4.18,5.52-.69,1.78-.46,3.77-.44,5.68a25.09,25.09,0,0,1-.77,6.4,2.39,2.39,0,0,0,2.41.06,2.37,2.37,0,0,0,1.23-2.07v-.13a.56.56,0,0,0,0,.12,2.4,2.4,0,0,0,2.2,1.47,2.51,2.51,0,0,0,1.59-.58,2.83,2.83,0,0,0,.24-.25,2.35,2.35,0,0,0,.42-2.41,2.41,2.41,0,0,0,2.4.55,1.69,1.69,0,0,0,.31-.13,2.37,2.37,0,0,0,.64-3.81l-.09-.08.11.05a2.38,2.38,0,0,0,3.12-1.28h0a3,3,0,0,1,1.1-5.43Z" transform="translate(-330.26 -372.3)"/><path class="cls-6" d="M561,553.12a47.08,47.08,0,0,1,7.83,0c3.24.2,2.86,2.27.33,2.59s-5.93.87-3.5,2.21a24.78,24.78,0,0,0,9.74,2.87c3,0,4.31,2.24.36,2.24s-7.06.9-9.65,0-7.77-5-8.87-6.61S559,553.43,561,553.12Z" transform="translate(-330.26 -372.3)"/><path class="cls-6" d="M594.87,525.58c-1.84-.33-5.42-.29-9.2-.85s-3.13-3-.12-3.08,5.57-.7,4.34-2.23c-2-2.56-2.49-3.47-10.68-3.56-3.56,0-4-2.34-.31-2.77,4.06-.47,8.05-1.06,11,.28s10.34,6.34,11.46,8.36S602.13,526.86,594.87,525.58Z" transform="translate(-330.26 -372.3)"/><path class="cls-16" d="M483.93,557.05c-.12,2.08.94,1.93,3.06,2.49a10,10,0,0,1,4.42,2.19c1,1.06-.42,2.3-1.3,2.48,1.31,1.14-.69,2.62-2.41,2.28,2,2.56-.75,2.68-3.37,2a26,26,0,0,1-5.61-2.16c-1.07-.46-2.1-1.33-2.62-4.41a3.82,3.82,0,0,1,2.26-4.28C480.69,556.44,484.08,554.6,483.93,557.05Z" transform="translate(-330.26 -372.3)"/><path class="cls-16" d="M532,556.47c.13,2.07-.93,1.93-3.06,2.49a9.92,9.92,0,0,0-4.41,2.19c-1,1.06.42,2.3,1.29,2.48-1.31,1.14.69,2.62,2.42,2.28-2,2.56.75,2.68,3.36,2a26.82,26.82,0,0,0,5.62-2.16c1.06-.47,2.09-1.33,2.62-4.41.2-1.2-.9-3.24-3-5S531.82,554,532,556.47Z" transform="translate(-330.26 -372.3)"/><path class="cls-7" d="M464.15,478.41a11.14,11.14,0,0,1,3.83-7.47s2.84-2.31,2.58-9" transform="translate(-330.26 -372.3)"/><path class="cls-7" d="M506.79,446a15.63,15.63,0,0,1,8.88-3" transform="translate(-330.26 -372.3)"/><path class="cls-7" d="M532.27,487.22c-.6,2.7-2.47,6.35-1.64,12.19" transform="translate(-330.26 -372.3)"/><circle class="cls-37" cx="239.58" cy="94.81" r="7.43"/><circle class="cls-37" cx="259.93" cy="96.71" r="7.43"/><path class="cls-37" d="M576.83,465.09a7.44,7.44,0,0,1,7.11.48" transform="translate(-330.26 -372.3)"/><path class="cls-37" d="M622,462.59c-10.56,1.26-25,3.51-25,3.51" transform="translate(-330.26 -372.3)"/><line class="cls-38" x1="233.27" y1="90.1" x2="229.41" y2="89.28"/><path class="cls-7" d="M563.08,464a6.67,6.67,0,0,1,5.28-4.18" transform="translate(-330.26 -372.3)"/><path class="cls-7" d="M583.38,465.83a6.66,6.66,0,0,1,5.28-4.19" transform="translate(-330.26 -372.3)"/></g></g></svg>