<svg id="Layer_1" data-name="Layer 1" xmlns="http://www.w3.org/2000/svg" xmlns:xlink="http://www.w3.org/1999/xlink" viewBox="0 0 250.66 258.86"><defs><style>.cls-1,.cls-15,.cls-19,.cls-20{fill:none;}.Graphic-Style-3{fill:#52d2bc;opacity:0.3;}.cls-2{fill:#f86c83;}.cls-3{fill:#8de1d3;}.cls-4{fill:#b0bdee;}.cls-5{fill:#8076fa;}.cls-6{fill:#fff;}.cls-7{fill:#f9879a;}.cls-8{clip-path:url(#clip-path);}.cls-9{fill:#4a23e8;}.cls-10{clip-path:url(#clip-path-2);}.cls-11{fill:#a83e54;}.cls-12{opacity:0.15;}.cls-13{fill:#ffdce0;}.cls-14{fill:#fbacb9;}.cls-15{stroke:#fff;stroke-miterlimit:10;stroke-width:1.5px;}.cls-15,.cls-19,.cls-20{stroke-linecap:round;}.cls-16{fill:#6534ff;isolation:isolate;opacity:0.32;}.cls-17{fill:#62bcf9;}.cls-18{fill:#b3ebe2;}.cls-19,.cls-20{stroke:#6534ff;stroke-linejoin:round;}.cls-19{stroke-width:1.4px;}</style><clipPath id="clip-path" transform="translate(-383.01 -359.61)"><circle class="cls-1" cx="487.37" cy="453.73" r="36.91"/></clipPath><clipPath id="clip-path-2" transform="translate(-383.01 -359.61)"><path class="cls-1" d="M492,475.43c3,3.29,21.81,5.12,20.61-3.91-.51-3.89-4.11-.62-9.61.21C495.73,472.83,489.35,472.55,492,475.43Z"/></clipPath></defs><path class="Graphic-Style-3" d="M397.26,453.73c19.92,22.09,19.34,41.08,2.07,64.82s-25.21,56.21,1,57.59,24.79,51.8,65.06,40.74,31.57-37.29,73-28,80.49,12.78,69.44-18.47-16.23-60.81,5.87-85.05,32.8-61.73-5.87-72.86-25.34-64-73.45-50.84-48.05,19-97.89,22.79S367.22,420.41,397.26,453.73Z" transform="translate(-383.01 -359.61)"/><path class="cls-2" d="M467.1,575.1c-1.59,2.8-3.45,6.9,1.73,7s6.68,0,8.07,0c2.76,0,2-2.66,0-3.08C472.28,578.08,468.58,572.51,467.1,575.1Z" transform="translate(-383.01 -359.61)"/><path class="cls-2" d="M491.8,575.1c-1.6,2.81-3.46,6.91,1.72,7s6.68,0,8.07,0c2.76,0,2-2.66,0-3.08C497,578.08,493.27,572.52,491.8,575.1Z" transform="translate(-383.01 -359.61)"/><path class="cls-3" d="M470.64,536.25c-.42,5.28-.36,17.81-1.12,22.53-1.21,7.51-1.56,12.45-2.33,15.63s3.88,4.57,5.35,1.21,5.87-10.19,6.56-15.11,2.08-8.55,2.61-11.31,2.31-2.72,3.55,1c2.65,7.94,3.51,9.23,5.06,25.2.41,4.2,5.79,2.11,5.84-.43.08-3.8,1.42-13.2.95-18.13-.32-3.45-1.26-17.89-1.69-21.12S471.35,527.29,470.64,536.25Z" transform="translate(-383.01 -359.61)"/><polygon class="cls-4" points="181.39 105.33 138.57 207.2 146.07 210.83 187.26 106.71 181.39 105.33"/><polygon class="cls-4" points="177.29 131.91 183.12 220.39 174.91 218.51 170.7 130.81 177.29 131.91"/><polygon class="cls-4" points="172.31 123.68 197.51 207.85 189.43 205.78 164.62 124.4 172.31 123.68"/><polygon class="cls-5" points="189.85 108.44 150.91 209.19 146.07 210.83 187.26 106.71 189.85 108.44"/><polygon class="cls-5" points="177.29 131.91 183.12 220.39 184.86 217.65 179.49 133.76 177.29 131.91"/><polygon class="cls-5" points="172.31 123.68 197.51 207.85 199.86 205.47 175.5 125.46 172.31 123.68"/><ellipse class="cls-6" cx="555.33" cy="508.12" rx="33.84" ry="24.78" transform="translate(-483.07 518.71) rotate(-71.92)"/><path class="cls-7" d="M497.71,535.21c1-7.3,2.16-24.36,1.85-31.59s5,.69,6.39,3.88a13.21,13.21,0,0,0,9.63,7.41c4.49.61,13.07-5.51,18-9.52,4.62-3.77,2.3-5.74-2.66-5.76s-6.41,2.8-11.14,4.92C516,506.23,512.67,500.3,509,494c-2-3.43-2.07-6.91-9.73-8.2L475.82,485s-12.71,6.37-8.53,12.7c3.52,5.31,2.17,31.88,2,38.3S496.71,542.51,497.71,535.21Z" transform="translate(-383.01 -359.61)"/><path class="cls-7" d="M472.32,484.72c-3.06,1.17-7.37.58-13,5.92-5.15,4.89-7.08,16.56-7.47,22.24-.65,9.5,1.56,10.72,6.87,11.8,5.79,1.18,12.82,2.59,18.39,1.56,5.87-1.09,5.7-7.12,1-7.86-5.08-.8-10.12-.92-13.08-2.24s-2.67-2.77-.39-10.37c1.32-4.38,4.29-8.08,4.86-.77" transform="translate(-383.01 -359.61)"/><circle class="cls-4" cx="104.36" cy="94.12" r="36.91"/><g class="cls-8"><path class="cls-9" d="M456.65,459.29c3.55,10.53,19,18,25.9,11,6.09-6.21,11.92-6.21,21.89-8,9.06-1.65,12.63-.48,14.5,4.14.72,1.77,6.09,4.06-.39,19.17-2.67,6.23-25.75,13.16-38,9s-28.84-11.51-30.69-23.94S452.51,447,456.65,459.29Z" transform="translate(-383.01 -359.61)"/></g><ellipse class="cls-9" cx="112.06" cy="96.27" rx="1.99" ry="2.76"/><ellipse class="cls-9" cx="132.91" cy="92.68" rx="1.99" ry="2.76"/><path class="cls-9" d="M454.35,472.42c-4.52-.14-18.29-6.92-17.77-33.2s15.54-45.46,46.36-45.59,42.74,17.1,45.07,26.94,1.22,17.26-6.92,20.35c-9.71,3.7-21.74,8.22-48,.2-10.7-3.27-14.85,10.79-15.63,15.58S460.34,472.6,454.35,472.42Z" transform="translate(-383.01 -359.61)"/><path class="cls-6" d="M492,475.43c3,3.29,21.81,5.12,20.61-3.91-.51-3.89-4.11-.62-9.61.21C495.73,472.83,489.35,472.55,492,475.43Z" transform="translate(-383.01 -359.61)"/><g class="cls-10"><path class="cls-11" d="M503.23,474.61c12.95-2.19,10.8-6.85,12.35-5.31s-5.8,6.08-12.52,6.69c-7.84.72-19.46-.08-20.85-1.55S494.33,476.12,503.23,474.61Z" transform="translate(-383.01 -359.61)"/></g><path class="cls-4" d="M481.48,517.15c-.46,1.69.14,2.47,3.68,1.27s2.58-.52,5.11-1.58,8.52-2.88,4.58.85a47.82,47.82,0,0,1-8.15,6.3c-2.45,1.65-8.08,2.34-10,.91s-3.23-2.56-1.42-4.5S481.84,515.81,481.48,517.15Z" transform="translate(-383.01 -359.61)"/><path class="cls-9" d="M479.56,512.53c-7.26,2.79-3.11,4.3.05,4.77,2.7.39,6.89,1.35,3.42,5.33-3.23,3.7,4.07,4.81,9.32,4.51,6.71-.39,20.46-9.09,10.3-14C496.75,510.3,486.71,509.78,479.56,512.53Z" transform="translate(-383.01 -359.61)"/><path class="cls-4" d="M474.75,522.76c-1.27-2.69,2.48-5.25,4.61-6.93s3.16-1.43,4.92-1.64c2.61-.31,3.34,2.29.39,2.7-1,.14-2.46.12-3.25,1.53S476.88,527.3,474.75,522.76Z" transform="translate(-383.01 -359.61)"/><g class="cls-12"><path class="cls-9" d="M505.9,488.79c-1.24-1.3-3.14-2.36-6.66-3l-21.44-.77.55-1.31-6,1c-2,.78-4.61.79-7.75,2.25a36.86,36.86,0,0,0,41.33,1.82Z" transform="translate(-383.01 -359.61)"/></g><ellipse class="cls-13" cx="111.99" cy="154.56" rx="3.18" ry="1.34"/><ellipse class="cls-7" cx="117.38" cy="158.08" rx="3.18" ry="1.34"/><ellipse class="cls-14" cx="109.97" cy="162.61" rx="3.18" ry="1.34"/><path class="cls-15" d="M462.91,513.42c.39,1.85.91,2.89,4.62,3.58a59.94,59.94,0,0,0,8.85,1.12" transform="translate(-383.01 -359.61)"/><path class="cls-15" d="M479.56,512.53a31,31,0,0,1,10.59-1.81" transform="translate(-383.01 -359.61)"/><path class="cls-15" d="M446.13,409.25c4.05-5.39,10.6-10,18.07-12.66" transform="translate(-383.01 -359.61)"/><path class="cls-15" d="M541.41,484c4.79-4.85,9.76-7.87,15.47-8.73" transform="translate(-383.01 -359.61)"/><path class="cls-15" d="M515.91,503.8c2,1.07,2.26,1.82,6.22-.44a57.38,57.38,0,0,1,5.24-2.8" transform="translate(-383.01 -359.61)"/><path class="cls-15" d="M469.52,558.78c-.67,4.48-1.51,11.2-2.14,14.74" transform="translate(-383.01 -359.61)"/><path class="cls-16" d="M569.23,510.31l-.35-3.23,1-3.29a5,5,0,0,0-.62-4.44l-1.39-1.78-.28-2.52a3.66,3.66,0,0,0-2.33-3.26l-2.54-.83-1.75-2.26a3,3,0,0,0-3.59-1l-2.14.8-2-.65a3.68,3.68,0,0,0-3.8,1.26l-2.19,2.39-2.73,1a5.19,5.19,0,0,0-3,3.44l-.76,2.57L539,500.41a5.92,5.92,0,0,0-1.47,4.53l.35,3.23-1,3.31a5.07,5.07,0,0,0,.63,4.45l1.38,1.77.29,2.52a3.69,3.69,0,0,0,2.33,3.27l2.11.69-2.39,7.31a.7.7,0,0,0,.1.65.43.43,0,0,0,.54.08L546,530a.43.43,0,0,1,.63.2l1.81,4.08a.44.44,0,0,0,.49.26.67.67,0,0,0,.47-.47l2.37-7.25,1.86.61a3.68,3.68,0,0,0,3.8-1.26l2.2-2.41,2.72-1a5.21,5.21,0,0,0,3-3.45l.76-2.58,1.72-1.87A5.89,5.89,0,0,0,569.23,510.31Z" transform="translate(-383.01 -359.61)"/><path class="cls-17" d="M550.06,533.72l-1.7-4.15a.39.39,0,0,0-.6-.19l-4,2.35a.39.39,0,0,1-.52-.08.71.71,0,0,1-.08-.66l2.81-8.61a.91.91,0,0,1,.27-.43.49.49,0,0,1,.41-.09l6.86,2.25a.6.6,0,0,1,.26.79L551,533.51a.73.73,0,0,1-.47.48A.39.39,0,0,1,550.06,533.72Z" transform="translate(-383.01 -359.61)"/><path class="cls-16" d="M549.2,527.08c2.36.77,5.08-1.05,6.06-4.06s-.14-6.07-2.5-6.85-5.08,1.05-6.07,4.06S546.83,526.3,549.2,527.08Z" transform="translate(-383.01 -359.61)"/><path class="cls-18" d="M571.43,508.84l-.35-3.22,1-3.28a5,5,0,0,0-.63-4.43L570,496.14l-.29-2.52a3.69,3.69,0,0,0-2.33-3.26l-2.55-.83-1.74-2.31a3.07,3.07,0,0,0-3.6-1l-2.14.81-2-.65a3.67,3.67,0,0,0-3.8,1.26l-2.2,2.39-2.73,1a5.18,5.18,0,0,0-2.95,3.44l-.75,2.58-1.72,1.86a5.92,5.92,0,0,0-1.48,4.51l.37,3.23-1,3.28a5,5,0,0,0,.63,4.44l1.38,1.77.29,2.52a3.68,3.68,0,0,0,2.33,3.25l2.56.84,1.76,2.25a3,3,0,0,0,3.58,1l2.14-.8,2,.66a3.7,3.7,0,0,0,3.81-1.26l2.19-2.39,2.72-1a5.21,5.21,0,0,0,3-3.45l.78-2.54,1.72-1.87A5.86,5.86,0,0,0,571.43,508.84Z" transform="translate(-383.01 -359.61)"/><path class="cls-19" d="M571.89,501.15a5,5,0,0,0-.65-4.45l-1.4-1.78-.29-2.52a3.72,3.72,0,0,0-2.36-3.26l-2.58-.84L562.83,486a3.11,3.11,0,0,0-3.63-1l-2.15.8-2-.66a3.68,3.68,0,0,0-3.82,1.22l-2.21,2.4-2.74,1a5.14,5.14,0,0,0-3,3.44l-.76,2.57-1.73,1.86a5.87,5.87,0,0,0-1.47,4.51l.36,3.25-1,3.28a5,5,0,0,0,.65,4.44l1.4,1.78.29,2.52a3.72,3.72,0,0,0,2.37,3.27l2.57.84,1.78,2.26a3.09,3.09,0,0,0,3.64,1" transform="translate(-383.01 -359.61)"/><path class="cls-16" d="M571,505.79l1-3.26a5,5,0,0,0-.62-4.4L570,496.37l-.28-2.5a3.65,3.65,0,0,0-2.3-3.23l-2.51-.82-.4-.51c-.36,1.36-.78,2.71-1.25,4.05a8.61,8.61,0,0,0-.39,5,17.59,17.59,0,0,0,1,2,8.75,8.75,0,0,1-.09,6.93c-.88,2-2.42,3.66-3.16,5.75s-.56,4.6-1.23,6.83a8.57,8.57,0,0,1-2.12,3.58c-.79.78-1.7,1.34-2.47,2.14l1.07.35a3.63,3.63,0,0,0,3.76-1.25l2.17-2.39,2.69-1a5.2,5.2,0,0,0,2.93-3.43l.76-2.56,1.71-1.85A5.91,5.91,0,0,0,571.4,509Z" transform="translate(-383.01 -359.61)"/><path class="cls-16" d="M550.75,521c6,2,11.2,2.68,11.56,1.58S558.07,519,552.05,517s-11.21-2.68-11.57-1.58S544.72,519,550.75,521Z" transform="translate(-383.01 -359.61)"/><path class="cls-17" d="M570.31,511.69a1.6,1.6,0,0,1-1.47.28L543,503.54a1.64,1.64,0,0,1-1-1.09,1.61,1.61,0,0,0-1.08-1.11,1.67,1.67,0,0,0-1.52.4l-.13.12a2.5,2.5,0,0,0-.86,1.67l-.77,7.58a2.57,2.57,0,0,0,1.53,2.82l26.66,8.7a2.55,2.55,0,0,0,2.9-1.37l3.85-6.57a2.51,2.51,0,0,0,.3-1.86l0-.18a1.66,1.66,0,0,0-1-1.21A1.62,1.62,0,0,0,570.31,511.69Z" transform="translate(-383.01 -359.61)"/><path class="cls-20" d="M541.23,502.2a1.59,1.59,0,0,0-1.08-1.11,1.68,1.68,0,0,0-1.53.39l-.13.12a2.5,2.5,0,0,0-.86,1.68l-.77,7.58a2.56,2.56,0,0,0,1.54,2.82l26.68,8.71A2.56,2.56,0,0,0,568,521m-25.18-18,9.35,3.05m5.79,14-5.45-1.78M548,519l1.56.51m2.87,9.72-1,3m-1.27-41,6.75-2.18" transform="translate(-383.01 -359.61)"/><path class="cls-4" d="M537,489.29c3.1-.28,1.57,2.39,4.42,2.94,3.23.63,1.72,3-.3,3s-11.64,3.6-3.91,4.77c4.16.63,2.9,4.26-.46,5.06s-6.79,1.95-8.74-1c-1.1-1.66-.5-3.93-.38-5.67s1.77-4.55,2.31-6.31S532.38,489.71,537,489.29Z" transform="translate(-383.01 -359.61)"/><path class="cls-9" d="M521.12,496.33c-8.27-1.8,21.09-2.19,25.52-1.43s2.38,2.77.2,2.83S526.92,497.59,521.12,496.33Z" transform="translate(-383.01 -359.61)"/><path class="cls-9" d="M548.49,494.25c1.67-1,2.74,1.19,6.51,1s2.12,1.5-.26,2.14-5.35,1.78-7.24-.36C546.45,495.87,547.32,495,548.49,494.25Z" transform="translate(-383.01 -359.61)"/><path class="cls-15" d="M547,495.42c.75-1,1.49-2.31,6-.28a9.12,9.12,0,0,0,4.16.62" transform="translate(-383.01 -359.61)"/><path class="cls-4" d="M538.57,504.42c3-1.3,4.87-4.71,6.22-6.72s-.93-4-2.94-1.85-4.17,4.14-6.31,4.28C529.47,500.54,529.21,508.53,538.57,504.42Z" transform="translate(-383.01 -359.61)"/></svg>