<svg xmlns="http://www.w3.org/2000/svg" viewBox="0 0 207.57 150.83"><defs><style>.cls-1{isolation:isolate;}.cls-2{fill:#889be5;mix-blend-mode:multiply;opacity:0.3;}.cls-3{fill:#52d2bc;}.cls-4{fill:#dcf6f2;}.cls-5{fill:#fff;}.Graphic-Style,.cls-8{fill:none;stroke-linecap:round;}.Graphic-Style{stroke:#fff;stroke-miterlimit:10;stroke-width:1.5px;}.cls-6{fill:#8076fa;}.cls-7{fill:#f9879a;}.cls-8{stroke:#4a23e8;stroke-linejoin:round;stroke-width:2px;}</style></defs><g class="cls-1"><g id="Layer_1" data-name="Layer 1"><rect class="cls-2" x="7.89" y="8.58" width="199.68" height="142.25" rx="12.86"/><rect class="cls-3" width="199.68" height="142.25" rx="12.86"/><rect class="cls-4" x="5.93" y="33.1" width="187.83" height="103.15" rx="8.12"/><rect class="cls-4" x="5.93" y="6.9" width="187.83" height="19.86" rx="8.12"/><circle class="cls-5" cx="27.37" cy="54.2" r="11.38"/><circle class="cls-5" cx="27.37" cy="85.91" r="11.38"/><circle class="cls-5" cx="27.37" cy="117.63" r="11.38"/><path class="Graphic-Style" d="M409,428.9c0-3.31,1.17-9.17,9.24-9.17" transform="translate(-403.12 -412.83)"/><path class="Graphic-Style" d="M409,455.65c0-6.22,2.52-9.72,9.45-9.72" transform="translate(-403.12 -412.83)"/><rect class="cls-6" x="50.33" y="48.75" width="49.51" height="12.41"/><rect class="cls-7" x="15.37" y="12.27" width="124.7" height="9.1"/><rect class="cls-6" x="50.33" y="79.71" width="89.1" height="12.41"/><rect class="cls-6" x="50.33" y="111.43" width="74.36" height="12.41"/><path class="cls-8" d="M423.17,465.24a42.93,42.93,0,0,1,5.59,5.65,80.51,80.51,0,0,1,10.79-14.61" transform="translate(-403.12 -412.83)"/><path class="cls-8" d="M423.17,496.65a42.93,42.93,0,0,1,5.59,5.65,80.88,80.88,0,0,1,10.79-14.62" transform="translate(-403.12 -412.83)"/><path class="cls-8" d="M423.17,529.12a42.37,42.37,0,0,1,5.59,5.66,80.19,80.19,0,0,1,10.79-14.62" transform="translate(-403.12 -412.83)"/></g></g></svg>