<svg id="Layer_1" data-name="Layer 1" xmlns="http://www.w3.org/2000/svg" xmlns:xlink="http://www.w3.org/1999/xlink" viewBox="0 0 227.78 257.91"><defs><style>.cls-1,.cls-5,.cls-8{fill:none;}.Graphic-Style-3,.cls-6{fill:#52d2bc;}.Graphic-Style-3{opacity:0.3;}.cls-2{fill:#fcc5cf;}.cls-3{fill:#f9879a;}.cls-4{fill:#fba6b4;}.cls-5,.cls-8{stroke:#fff;stroke-linecap:round;stroke-width:1.5px;}.cls-5{stroke-miterlimit:10;}.cls-7{fill:#b0bdee;}.cls-8{stroke-linejoin:round;}.cls-9{fill:#f86c83;}.cls-10{fill:#4a23e8;}.cls-11{fill:#a83e54;}.cls-12{clip-path:url(#clip-path);}.cls-13{fill:#ff6581;}.cls-14{fill:#fff;}.cls-15{fill:#fa99a9;}</style><clipPath id="clip-path" transform="translate(-387.68 -357.31)"><path class="cls-1" d="M483,457.84c-5.54-.47-10.79-6.06-11.43-.37s9.55,9.28,15.32,9.46,11.06-2.64,10.77-6.26C497.19,454.94,487.8,458.24,483,457.84Z"/></clipPath></defs><path class="Graphic-Style-3" d="M447.85,368C401,372.77,403.6,404,394.41,422.54c-11.25,22.75,31.85,15.21,1.81,52.85s30.58,39.93,7.47,89.72,29.89,33.22,56.47,30.8,74.72,41.26,114.63,4.57-33.33-43.25,19.75-84.69-13.17-62.5,0-101.18,14.69-75.28-69.39-47.65S478.36,364.89,447.85,368Z" transform="translate(-387.68 -357.31)"/><path class="cls-2" d="M498.61,573.47a2.29,2.29,0,0,0-2.17-.33,4.65,4.65,0,0,0-3,4.35,2.72,2.72,0,0,0,.93,2.13l2.34,2,4.56-6Z" transform="translate(-387.68 -357.31)"/><path class="cls-3" d="M502,577.62a4.67,4.67,0,0,1-3,4.35,2.3,2.3,0,0,1-2.12-.3,2.69,2.69,0,0,1-1-2.16,4.67,4.67,0,0,1,3-4.35,2.34,2.34,0,0,1,2.18.33A2.72,2.72,0,0,1,502,577.62Z" transform="translate(-387.68 -357.31)"/><path class="cls-2" d="M524.75,557.82a2.29,2.29,0,0,0-2.17-.33,4.64,4.64,0,0,0-3,4.34,2.68,2.68,0,0,0,.93,2.13l2.34,2,4.56-6Z" transform="translate(-387.68 -357.31)"/><path class="cls-3" d="M528.1,562a4.67,4.67,0,0,1-3,4.35A2.33,2.33,0,0,1,523,566a2.68,2.68,0,0,1-1-2.16,4.67,4.67,0,0,1,3-4.35,2.29,2.29,0,0,1,2.17.33A2.68,2.68,0,0,1,528.1,562Z" transform="translate(-387.68 -357.31)"/><path class="cls-4" d="M477.93,573.08h0c-4.71-2.89-4.05-8.4,2.8-9.91a17.34,17.34,0,0,0,5.84-2.4c1.92-1.09,19.76-11.23,21.13-12a17.78,17.78,0,0,0,3.53-2.69c4.65-4.32,12-5,16.7-2.12h0c4.71,2.88,2.8,9.18.48,11.58a20.32,20.32,0,0,1-4.41,3.24c-1.82,1-22.84,13.5-24.55,14.6a12.9,12.9,0,0,1-5.24,2.36A23,23,0,0,1,477.93,573.08Z" transform="translate(-387.68 -357.31)"/><path class="cls-5" d="M496.34,580a3.87,3.87,0,0,1,2.49-4.48" transform="translate(-387.68 -357.31)"/><path class="cls-5" d="M522.38,563.41c0-1.25.75-3,2.21-3.48" transform="translate(-387.68 -357.31)"/><path class="cls-6" d="M548.7,455.83c-11.26,8.81-8.36,11.19-18,11.19-5.16,0-14.14-.2-17.2-1.37l-28.19-1.82c-7.82,2.2-8.49,3.82-14.84,7.38-8.83,5-12.46,3.93-18.93,3.59-4.13-.22-5.25-1.06-10.17-1.71s-6.75,4.84-1.29,7.25c5.61,2.48,6.86,2.57,11.37,3.08,4.69.53,11.62,1.28,16.06-.94,6.39-3.19,10.42-5.46,9.72,3-.66,8.16-.06,7.29-.06,25.77,0,3.47,12.2-6.66,22.67-9.26,8.55-2.12,15.34,2.19,15.24-.58-.61-16.33.08-9.61-.8-18.5-.29-2.9,1.42-7.22,4.47-7.07,2.56.13,5.13.13,12.51.26,7.08.13,9.93-.68,13.9-4.14,5.23-4.56,4.63-7.11,10.1-12.16C558.5,456.78,555.73,450.34,548.7,455.83Z" transform="translate(-387.68 -357.31)"/><path class="cls-5" d="M532.67,466.94c2-.3,6.4-1.47,11.83-7.86" transform="translate(-387.68 -357.31)"/><path class="cls-7" d="M442.09,475.55c-1.72-5.22-3.13-6-8.6-8.41-2.23-1-2.07,1.82-.81,2.26,1.93.68,4.38,3.48.81,2.64a32.52,32.52,0,0,0-6.45-1.23c-3.52-.42-2.73,1.84-.56,2.28a29.71,29.71,0,0,1,4.48,1.09c1.41.65,1,1.28-.14,1.24-2.91-.13-4.14-.58-5.92-.59-1.41,0-2.49,2.24,0,2.51s4.72.42,5.66.61,1.3,1.42.35,1.38-2.92-.33-4.71-.43c-.9,0-2.49,2.13.08,2.3a42.26,42.26,0,0,0,6.19.09c2.47-.15,5.17-.13,7.2-.87A4.22,4.22,0,0,0,442.09,475.55Z" transform="translate(-387.68 -357.31)"/><path class="cls-7" d="M550,456.44c-1.41-5.52-.56-7.07,3.12-12.49,1.5-2.21,3,.27,2,1.43-1.39,1.76-2.05,5.67.76,2.75a38.93,38.93,0,0,1,5.24-5c3-2.53,3.57-.11,1.82,1.61a34.72,34.72,0,0,0-3.5,3.69c-.94,1.43-.16,1.69.83,1,2.61-1.91,3.49-3.05,5.13-4.16,1.3-.88,3.57.37,1.41,2.15s-4.11,3.28-4.87,4-.38,2,.47,1.39,2.5-2.09,4.09-3.28c.81-.6,3.52.27,1.25,2a49.46,49.46,0,0,1-5.66,3.91c-2.37,1.4-4.84,3.08-7.14,3.71A4.23,4.23,0,0,1,550,456.44Z" transform="translate(-387.68 -357.31)"/><path class="cls-8" d="M499.13,475.75c-2.07,2.46-5.95,6.73-5.95,6.73l3.56,1.43s-4.34,5.24-5.05,6.21" transform="translate(-387.68 -357.31)"/><path class="cls-9" d="M524.07,544.57c2.1,2.87,8.42,7.37,2.08,9.87-1.53.6-5.26-1.45-6.58-2.68-2.65-2.48-4.13-3.5-2.59-5.77C518.38,543.93,522.13,541.92,524.07,544.57Z" transform="translate(-387.68 -357.31)"/><path class="cls-9" d="M488.47,560.85c2.1,2.87,1,5.54,0,8.26-1.28,3.25-5.63,3.54-7.41,3.11-2.44-.58-1.85-3.15-.81-5.7C483.74,557.85,486.53,558.2,488.47,560.85Z" transform="translate(-387.68 -357.31)"/><path class="cls-10" d="M512.09,512.59c1.19,2.39,7.7,11,8.72,16.1,1.63,8.17,2.12,11.71,3.15,15.12s-5,5.69-7,2.18-2.9-8.16-6.13-12.55c-1.86-2.53-4.77-4.42-8.66-6.22-2.79-1.29-5.21-.8-7.6,3.19-5.82,9.74-3.85,15.09-5.15,29.11-.44,4.74-7.53,3.24-7.62.43-.12-4.22-3.89-18.64-3.32-24.18.4-3.89,2.45-16.74,3-20.39S507.68,503.71,512.09,512.59Z" transform="translate(-387.68 -357.31)"/><circle class="cls-7" cx="108.08" cy="77" r="36.91"/><path class="cls-11" d="M483,457.84c-5.54-.47-10.79-6.06-11.43-.37s9.55,9.28,15.32,9.46,11.06-2.64,10.77-6.26C497.19,454.94,487.8,458.24,483,457.84Z" transform="translate(-387.68 -357.31)"/><g class="cls-12"><path class="cls-13" d="M490.42,468c-.52-3.41-8.09-7.83-12.6-1.09S491.4,474.49,490.42,468Z" transform="translate(-387.68 -357.31)"/><path class="cls-14" d="M493.51,457.46c-1.77,2.47-15.75,4.77-15.52-1.67S496.24,453.65,493.51,457.46Z" transform="translate(-387.68 -357.31)"/></g><path class="cls-10" d="M525.85,420.47c-16.45,7.17-26.48,14.31-31.59,13.88s-28.43-3.68-31.87-3.76-8.29-1.8-5.45,2.7c.51-1.52,1.85.38,2,1.72s-.26,7.53,3.18,8.6,8.24,2.44,9.65,2,1.9-9.8,5.27-9,4,10.43,7.38,11.47,12.23,1.06,13.88.7.63-8.7,1.4-9.66,24-14.75,26.72-16.56C528.89,420.9,530.12,418.61,525.85,420.47Z" transform="translate(-387.68 -357.31)"/><path class="cls-15" d="M460.77,422.54c-3.64,1.93-9.51,3.57-14,5.48-3.36,1.43-9.31,5.5-.09,4.82,8.94-.66,18.58,6,23,8.11,9.24,4.41,25.42-6.38,29.18-9s9.82-4.28,13.72-5.7C486.27,424.9,482.08,423.08,460.77,422.54Z" transform="translate(-387.68 -357.31)"/><path class="cls-3" d="M460.77,422.54a102.49,102.49,0,0,1-.66-16.85c.13-3.37,15.54-11,19.55-12.43s9.76-4.79,18-3.67,14.59,2.48,21.84,6,9,8.29,9.67,11,.74,7.8,1.55,15.51a155.34,155.34,0,0,1-30.24,7.13C489,430.76,461.4,427.44,460.77,422.54Z" transform="translate(-387.68 -357.31)"/><path class="cls-5" d="M463.19,402.11c1.92-1.34,13.37-8.37,21.41-10.81" transform="translate(-387.68 -357.31)"/><path class="cls-5" d="M446.77,428c-2.67,1.18-9.27,4.68-1,4.87" transform="translate(-387.68 -357.31)"/><path class="cls-5" d="M477.73,564.28c-2.26,1.35-3.59,4.24-2.18,6.48" transform="translate(-387.68 -357.31)"/><path class="cls-5" d="M507.92,548.61c1.13-.73,3.06-2.5,4.13-3.26a20.36,20.36,0,0,1,2.88-1.77" transform="translate(-387.68 -357.31)"/><path class="cls-5" d="M478.9,532.61c-.32,2.46-.74,7.67,0,11" transform="translate(-387.68 -357.31)"/></svg>